<svg id="Layer_1" data-name="Layer 1" xmlns="http://www.w3.org/2000/svg" viewBox="0 0 38.34 37.98"><defs><style>.cls-1{fill:#fff;}</style></defs><title>captain-white</title><path class="cls-1" d="M144.91,90.75q1.57,0,2.06,3.1a7.87,7.87,0,0,1-1,2.27q4.94,13.22,5.24,13.41h.13q8.67-5.77,9.05-5.77l-.15-1v-.61q.34-2.48,1.75-2.48h.13q2.06,0,2.06,3.1-.38,2.48-2.06,2.48H162l-.74-.21q-5.71,18.59-6.13,18.59H134.71q-.25-.27-6.11-18.59l-.74.21h-.28a2.29,2.29,0,0,1-1.75-2.48v-.4q.23-2.7,1.75-2.7h.13q2.06.4,2.06,2.91v1.23q8.05,5.37,9.19,5.77.64-2.14,5.09-13.41-.36-.13-1-2.06,0-.21.15-.21,0-.21-.15-.21Q143.38,90.75,144.91,90.75Zm-18.5,11.57v.21q0,.4.28.4h.15a4.34,4.34,0,0,1,1.17-1.87v-.19c0-.28-.1-.43-.3-.43Q126.41,100.71,126.41,102.31Zm9.18,23.53h18.65q.87,0,1.17,1.23,0,1.66-1.45,1.66H137.48a.91.91,0,0,1-.58-.21.86.86,0,0,1-.58.21h-.57q-.81,0-1.17-1v-.4Q134.57,125.84,135.59,125.85Zm-.58-7.24V119q0,.32.58.83h.72a1.55,1.55,0,0,0,.58-1.44q-.34-1.26-1-1.26A1.36,1.36,0,0,0,135,118.61Zm5.39-2.06a2.06,2.06,0,0,1-1.32,1.87l1.47,2.06a3.31,3.31,0,0,1,1.3-2.06,1.78,1.78,0,0,1-1.3-1.87Zm3.21-22.92v.43a.92.92,0,0,1,.43.19,3.66,3.66,0,0,1,1.17-1.84v-.61h-.74A2.11,2.11,0,0,0,143.61,93.63Zm.43,25V119q0,.32.58.83h.74a1.55,1.55,0,0,0,.58-1.44q0-.64-.89-1.26Q144,117.16,144,118.61Zm5.39-2.06a2.13,2.13,0,0,1-1.32,1.87l1.47,2.06q0-.77,1.3-2.06a1.78,1.78,0,0,1-1.3-1.87Zm3.64,2.06V119q0,.32.58.83h.74a1.55,1.55,0,0,0,.58-1.44q0-.64-.89-1.26Q153.08,117.16,153.08,118.61Zm7.73-16.29v.21q0,.4.28.4h.15q.57-1.44.74-1.44.58,0,.58-.61l-.45-.43Q160.81,100.71,160.81,102.31Z" transform="translate(-125.82 -90.75)"/></svg>