<?xml version="1.0" encoding="utf-8"?>
<!-- Generator: Adobe Illustrator 21.1.0, SVG Export Plug-In . SVG Version: 6.00 Build 0)  -->
<svg version="1.1" id="role_flex" xmlns="http://www.w3.org/2000/svg" xmlns:xlink="http://www.w3.org/1999/xlink" x="0px" y="0px"
	 viewBox="0 0 1440 1440" style="enable-background:new 0 0 1440 1440;" xml:space="preserve">
<style type="text/css">
	.st0{fill:#FFFFFF;}
</style>
<path class="st0" d="M417.4,740L417.4,740c5-41.1,18.6-80.8,39.8-116.3c2.9-5.2,11.3-13.5,2.5-22.5c-20.5-28.9-36.5-60.6-47.5-94.3
	c-1.3-6.1-7.3-9.9-13.4-8.6c-2.7,0.6-5,2.1-6.6,4.3c-63.6,74.2-98.9,168.5-99.7,266.2l0,0c-106.8,61-144,197.1-82.9,303.9
	c61,106.8,197.1,144,303.9,82.9s144-197.1,82.9-303.9c-37-64.7-103.8-106.6-178.1-111.7H417.4z"/>
<path class="st0" d="M607.5,604.1c101.1,58.8,230.5,29.3,296.1-67.5l0,0c33.2,25.1,60.7,56.9,80.8,93.4c2.9,5.2,6.1,16.4,18.2,13.5
	c35.2-3.2,70.7-1.1,105.3,6.3c5.9,1.8,12.2-1.5,14.1-7.4c0.8-2.5,0.7-5.2-0.4-7.7c-32-92.6-95.8-170.9-180-221l0,0
	c1.4-123-97.2-223.9-220.2-225.3c-123-1.4-223.9,97.2-225.3,220.2C495.2,489.2,537.8,563.9,607.5,604.1z"/>
<path class="st0" d="M1231.4,852.1c-57.9-108.4-192.7-149.3-301.1-91.4c-107.2,57.3-148.6,189.9-93.1,297.9l0,0
	c-38.3,15.9-79.4,23.5-120.8,22.5c-6.1,0-17.1-3.2-20.7,9c-15,32-34.7,61.6-58.5,87.8c-4.6,4.1-5.1,11.2-0.9,15.9
	c1.8,2,4.3,3.4,7,3.7c96.2,18.8,195.9,2.8,281.5-45l0,0c106.5,61.7,242.7,25.4,304.4-81.1C1268.3,1003.7,1269.2,920.5,1231.4,852.1z
	"/>
</svg>
