<?xml version="1.0" encoding="utf-8"?>
<!-- Generator: Adobe Illustrator 21.1.0, SVG Export Plug-In . SVG Version: 6.00 Build 0)  -->
<svg version="1.1" id="role_offense" xmlns="http://www.w3.org/2000/svg" xmlns:xlink="http://www.w3.org/1999/xlink" x="0px"
	 y="0px" viewBox="0 0 1440 1440" style="enable-background:new 0 0 1440 1440;" xml:space="preserve">
<rect x="270" y="1109.3" width="229.5" height="126.2"/>
<path d="M499.5,429.8c0.4-7.5,0.4-15,0-22.5c-18-155.2-114.8-202.5-114.8-202.5S288,252,270,407.3c0,6.8,0,22.5,0,22.5v591.8h229.5
	V429.8z"/>
<rect x="605.3" y="1109.3" width="229.5" height="126.2"/>
<path d="M834.7,429.8c0.4-7.5,0.4-15,0-22.5C816.8,252,720,202.5,720,202.5S623.3,249.8,605.3,405c0,6.7,0,22.5,0,22.5v594h229.5
	V429.8z"/>
<rect x="940.5" y="1109.3" width="229.5" height="126.2"/>
<path d="M1170,429.8c0,0,0-18,0-22.5c-18-155.2-114.8-202.5-114.8-202.5S958.5,252,940.5,407.3c0,6.8,0,22.5,0,22.5v591.8H1170
	V429.8z"/>
</svg>
