<?xml version="1.0" encoding="utf-8"?>
<!-- Generator: Adobe Illustrator 21.1.0, SVG Export Plug-In . SVG Version: 6.00 Build 0)  -->
<svg version="1.1" id="role_support" xmlns="http://www.w3.org/2000/svg" xmlns:xlink="http://www.w3.org/1999/xlink" x="0px"
	 y="0px" viewBox="0 0 1440 1440" style="enable-background:new 0 0 1440 1440;" xml:space="preserve">
<path d="M1167.8,522H918V272.3c0-50.9-41.3-92.2-92.3-92.3H614.3c-50.9,0-92.3,41.3-92.3,92.3l0,0V522H272.3
	c-50.9,0-92.2,41.3-92.3,92.3v211.5c0,50.9,41.3,92.2,92.3,92.2H522v249.8c0,50.9,41.3,92.3,92.3,92.3h211.5
	c50.9,0,92.2-41.3,92.2-92.3V918h249.8c50.9,0,92.3-41.3,92.3-92.3V614.3C1260,563.3,1218.7,522,1167.8,522z"/>
</svg>
