<?xml version="1.0" encoding="utf-8"?>
<!-- Generator: Adobe Illustrator 21.1.0, SVG Export Plug-In . SVG Version: 6.00 Build 0)  -->
<svg version="1.1" id="role_tank" xmlns="http://www.w3.org/2000/svg" xmlns:xlink="http://www.w3.org/1999/xlink" x="0px" y="0px"
	 viewBox="0 0 1440 1440" style="enable-background:new 0 0 1440 1440;" xml:space="preserve">
<style type="text/css">
	.st0{fill:#FFFFFF;}
</style>
<path class="st0" d="M1156.5,542.3c0,69.8,0,139.5,0,209.3c0.4,18.9-4.3,37.5-13.5,54c-95.6,176.6-231.2,328.4-396,443.2
	c-15.4,13.8-38.6,13.8-54,0C528.9,1135.1,393.3,984.9,297,810c-10.8-19.2-16.2-41-15.8-63c0-130.5,2.3-263.3,0-393.7
	c-2.3-94.5,72-110.3,137.3-126c104.9-28.8,213-44.7,321.8-47.3c103.5,0,261,36,317.2,54s92.3,31.5,96.8,74.3s2.3,72,2.3,110.3
	S1156.5,501.8,1156.5,542.3L1156.5,542.3z"/>
</svg>
