<?xml version="1.0" encoding="utf-8"?>
<!-- Generator: Adobe Illustrator 21.1.0, SVG Export Plug-In . SVG Version: 6.00 Build 0)  -->
<svg version="1.1" id="Layer_1" xmlns="http://www.w3.org/2000/svg" xmlns:xlink="http://www.w3.org/1999/xlink" x="0px" y="0px"
	 viewBox="0 0 612 792" style="fill: #218ffe; enable-background:new 0 0 612 792;" xml:space="preserve">
<path d="M177.4,404.5L177.4,404.5c2.1-17.5,7.9-34.3,16.9-49.4c1.2-2.2,4.8-5.7,1.1-9.6c-8.7-12.3-15.5-25.8-20.2-40.1
	c-0.6-2.6-3.1-4.2-5.7-3.6c-1.1,0.2-2.1,0.9-2.8,1.8c-27,31.5-42,71.6-42.4,113.1l0,0c-45.4,25.9-61.2,83.8-35.3,129.2
	s83.8,61.2,129.2,35.3c45.4-25.9,61.2-83.8,35.3-129.2c-15.7-27.5-44.1-45.3-75.7-47.5H177.4z"/>
<path d="M258.2,346.8c43,25,98,12.5,125.8-28.7l0,0c14.1,10.7,25.8,24.2,34.3,39.7c1.2,2.2,2.6,7,7.7,5.7c15-1.4,30.1-0.5,44.8,2.7
	c2.5,0.8,5.2-0.6,6-3.1c0.3-1.1,0.3-2.2-0.2-3.3c-13.6-39.4-40.7-72.6-76.5-93.9l0,0c0.6-52.3-41.3-95.1-93.6-95.7
	c-52.3-0.6-95.1,41.3-95.7,93.6C210.5,297.9,228.6,329.6,258.2,346.8z"/>
<path d="M523.4,452.1c-24.6-46.1-81.9-63.5-128-38.8c-45.5,24.3-63.1,80.7-39.6,126.6l0,0c-16.3,6.7-33.8,10-51.4,9.6
	c-2.6,0-7.3-1.3-8.8,3.8c-6.4,13.6-14.8,26.2-24.9,37.3c-2,1.8-2.2,4.8-0.4,6.7c0.8,0.9,1.8,1.4,3,1.6c40.9,8,83.3,1.2,119.6-19.1
	l0,0c45.2,26.2,103.2,10.8,129.4-34.5C539,516.6,539.4,481.2,523.4,452.1z"/>
</svg>
