<?xml version="1.0" encoding="utf-8"?>
<!-- Generator: Adobe Illustrator 21.1.0, SVG Export Plug-In . SVG Version: 6.00 Build 0)  -->
<svg version="1.1" id="role_tank" xmlns="http://www.w3.org/2000/svg" xmlns:xlink="http://www.w3.org/1999/xlink" x="0px" y="0px"
	 viewBox="0 0 612 792" style="fill: #43484c; enable-background:new 0 0 612 792;" xml:space="preserve">
<path d="M491.5,320.5c0,29.6,0,59.3,0,88.9c0.2,8-1.8,15.9-5.7,23c-40.6,75.1-98.3,139.6-168.3,188.4c-6.5,5.8-16.4,5.8-22.9,0
	c-69.8-48.3-127.4-112.1-168.3-186.5c-4.6-8.2-6.9-17.4-6.7-26.8c0-55.5,1-111.9,0-167.3c-1-40.2,30.6-46.9,58.3-53.6
	c44.6-12.2,90.5-19,136.7-20.1c44,0,110.9,15.3,134.8,22.9s39.2,13.4,41.1,31.6s1,30.6,1,46.9S491.5,303.2,491.5,320.5L491.5,320.5z
	"/>
</svg>
