<?xml version="1.0" encoding="utf-8"?>
<!-- Generator: Adobe Illustrator 21.1.0, SVG Export Plug-In . SVG Version: 6.00 Build 0)  -->
<svg version="1.1" id="Layer_1" xmlns="http://www.w3.org/2000/svg" xmlns:xlink="http://www.w3.org/1999/xlink" x="0px" y="0px"
	 viewBox="0 0 298.6 45.2" style="enable-background:new 0 0 298.6 45.2;" xml:space="preserve">
<style type="text/css">
	.st0{fill:#405275;}
	.st1{fill:#F99E1A;}
	.st2{fill:#FFFFFF;}
</style>
<path class="st0" d="M20.4,45.2c-3.9,0-6.7-3.6-9.9-5.4s-7.9-2.6-9.5-6c-1.9-3.2-0.4-7.5-0.4-11.2c0-3.9-1.5-8.2,0.4-11.2
	c1.9-3.2,6.4-4.1,9.5-6s6-5.4,9.9-5.4s6.7,3.6,9.9,5.4c3.4,1.9,7.9,2.8,9.7,6c1.9,3.2,0.4,7.5,0.4,11.2c0,3.9,1.5,8.2-0.4,11.2
	c-1.9,3.2-6.4,4.1-9.5,6C27.3,41.7,24.3,45.2,20.4,45.2z"/>
<circle class="st1" cx="20.4" cy="9" r="3.9"/>
<circle class="st2" cx="8" cy="15.5" r="3.9"/>
<circle class="st2" cx="8" cy="29.9" r="3.9"/>
<circle class="st2" cx="20.4" cy="36.1" r="3.9"/>
<circle class="st2" cx="32.9" cy="29.9" r="3.9"/>
<circle class="st2" cx="32.9" cy="15.5" r="3.9"/>
<g>
	<path class="st0" d="M74.4,34.6h-3.3V23.7H58.2v10.9h-3.3v-24h3.3v10.7h12.9V10.6h3.3V34.6z"/>
	<path class="st0" d="M92.5,34.6h-3.3v-24h3.3V34.6z"/>
	<path class="st0" d="M118,32.3c0.6,0,1.2,0,1.8-0.1c0.5-0.1,1.1-0.2,1.5-0.3c0.5-0.1,0.9-0.3,1.4-0.4c0.4-0.2,0.8-0.4,1.3-0.6v-5.3
		h-3.7c-0.2,0-0.4-0.1-0.5-0.2s-0.2-0.3-0.2-0.5v-1.8h7.4v9.2c-0.6,0.4-1.2,0.8-1.9,1.1c-0.7,0.3-1.4,0.6-2.1,0.8
		c-0.7,0.2-1.5,0.4-2.4,0.5c-0.8,0.1-1.8,0.2-2.8,0.2c-1.7,0-3.3-0.3-4.8-0.9c-1.5-0.6-2.7-1.4-3.8-2.5c-1.1-1.1-1.9-2.4-2.5-3.9
		s-0.9-3.2-0.9-5c0-1.8,0.3-3.5,0.9-5s1.4-2.8,2.5-3.9s2.4-1.9,3.9-2.5c1.5-0.6,3.2-0.9,5.1-0.9c0.9,0,1.8,0.1,2.6,0.2
		c0.8,0.1,1.6,0.3,2.3,0.6c0.7,0.3,1.3,0.6,1.9,1c0.6,0.4,1.1,0.8,1.7,1.3l-0.9,1.5c-0.2,0.3-0.4,0.5-0.7,0.5
		c-0.2,0-0.4-0.1-0.6-0.2c-0.3-0.2-0.6-0.3-0.9-0.6c-0.3-0.2-0.8-0.4-1.3-0.6s-1.1-0.4-1.8-0.5c-0.7-0.1-1.5-0.2-2.4-0.2
		c-1.4,0-2.6,0.2-3.7,0.7c-1.1,0.4-2,1.1-2.8,1.9s-1.4,1.8-1.8,3c-0.4,1.2-0.6,2.5-0.6,3.9c0,1.5,0.2,2.9,0.6,4.1s1,2.2,1.8,3
		s1.7,1.5,2.8,1.9S116.7,32.3,118,32.3z"/>
	<path class="st0" d="M159.8,34.6h-3.3V23.7h-12.9v10.9h-3.3v-24h3.3v10.7h12.9V10.6h3.3V34.6z"/>
	<path class="st0" d="M176.7,10.2c0.2,0,0.3,0.1,0.5,0.1s0.3,0.1,0.4,0.3c0.1,0.2,0.3,0.3,0.4,0.5l11.6,14.6c0-0.5-0.1-0.9-0.1-1.4
		c0-0.4,0-0.9,0-1.2V10.2h5v24.4h-2.9c-0.4,0-0.8-0.1-1.1-0.2c-0.3-0.1-0.6-0.4-0.9-0.7l-11.5-14.5c0,0.4,0.1,0.8,0.1,1.2
		s0,0.8,0,1.1v13.1h-5V10.2h3C176.4,10.2,176.6,10.2,176.7,10.2z"/>
	<path class="st0" d="M230.9,22.4c0,1.8-0.3,3.4-0.9,4.9s-1.5,2.8-2.6,4c-1.1,1.1-2.4,2-4,2.6c-1.6,0.6-3.3,1-5.2,1s-3.6-0.3-5.2-1
		c-1.6-0.6-2.9-1.5-4-2.6c-1.1-1.1-2-2.4-2.6-4c-0.6-1.5-0.9-3.2-0.9-4.9c0-1.7,0.3-3.4,0.9-4.9c0.6-1.5,1.5-2.8,2.6-4
		c1.1-1.1,2.5-2,4-2.6c1.6-0.6,3.3-1,5.2-1s3.6,0.3,5.2,1c1.6,0.6,2.9,1.5,4,2.6s2,2.4,2.6,4C230.6,19,230.9,20.7,230.9,22.4z
		 M225.1,22.4c0-1.2-0.2-2.3-0.5-3.3s-0.8-1.8-1.3-2.5c-0.5-0.7-1.3-1.2-2.2-1.5c-0.8-0.4-1.8-0.5-2.9-0.5c-1.1,0-2.1,0.2-2.9,0.5
		c-0.9,0.4-1.6,0.9-2.2,1.5c-0.6,0.7-1,1.5-1.3,2.5s-0.5,2.1-0.5,3.3c0,1.2,0.2,2.3,0.5,3.3s0.8,1.8,1.3,2.5
		c0.6,0.7,1.3,1.2,2.2,1.5c0.9,0.4,1.8,0.5,2.9,0.5c1.1,0,2-0.2,2.9-0.5c0.8-0.4,1.6-0.9,2.2-1.5s1-1.5,1.3-2.5
		S225.1,23.6,225.1,22.4z"/>
	<path class="st0" d="M266.1,22.4c0,1.8-0.3,3.4-0.9,4.9c-0.6,1.5-1.5,2.8-2.6,4s-2.4,2-4,2.6c-1.6,0.6-3.3,1-5.2,1s-3.6-0.3-5.2-1
		s-2.9-1.5-4-2.6c-1.1-1.1-2-2.4-2.6-4c-0.6-1.5-0.9-3.2-0.9-4.9c0-1.7,0.3-3.4,0.9-4.9c0.6-1.5,1.5-2.8,2.6-4c1.1-1.1,2.4-2,4-2.6
		c1.6-0.6,3.3-1,5.2-1s3.6,0.3,5.2,1c1.6,0.6,2.9,1.5,4,2.6s2,2.4,2.6,4C265.8,19,266.1,20.7,266.1,22.4z M260.3,22.4
		c0-1.2-0.2-2.3-0.5-3.3c-0.3-1-0.8-1.8-1.3-2.5c-0.6-0.7-1.3-1.2-2.2-1.5c-0.8-0.4-1.8-0.5-2.9-0.5c-1.1,0-2.1,0.2-2.9,0.5
		c-0.9,0.4-1.6,0.9-2.2,1.5s-1,1.5-1.3,2.5s-0.5,2.1-0.5,3.3c0,1.2,0.2,2.3,0.5,3.3s0.8,1.8,1.3,2.5s1.3,1.2,2.2,1.5
		c0.9,0.4,1.8,0.5,2.9,0.5c1.1,0,2.1-0.2,2.9-0.5c0.8-0.4,1.6-0.9,2.2-1.5c0.6-0.7,1-1.5,1.3-2.5C260.1,24.7,260.3,23.6,260.3,22.4z
		"/>
	<path class="st0" d="M280.8,10.2c0.2,0,0.3,0.1,0.5,0.1c0.1,0.1,0.3,0.1,0.4,0.3c0.1,0.2,0.3,0.3,0.4,0.5l11.6,14.7
		c0-0.5-0.1-0.9-0.1-1.4s0-0.9,0-1.2v-13h5v24.4h-3c-0.4,0-0.8-0.1-1.1-0.2c-0.3-0.1-0.6-0.4-0.9-0.7l-11.5-14.5
		c0,0.4,0.1,0.8,0.1,1.2s0,0.8,0,1.1v13.1h-5V10.2h3C280.5,10.2,280.7,10.2,280.8,10.2z"/>
</g>
</svg>
