<?xml version="1.0" encoding="utf-8"?>
<!-- Generator: Adobe Illustrator 21.1.0, SVG Export Plug-In . SVG Version: 6.00 Build 0)  -->
<svg version="1.1" id="Layer_1" xmlns="http://www.w3.org/2000/svg" xmlns:xlink="http://www.w3.org/1999/xlink" x="0px" y="0px"
	 viewBox="0 0 500 500" style="enable-background:new 0 0 500 500;" xml:space="preserve">
<style type="text/css">
	.st0{fill:#F99F1E;}
	.st1{fill:#415376;}
	.st2{fill:#FFFFFF;}
</style>
<polygon class="st0" points="250,197.3 195.3,226.1 205.8,165.2 161.5,122.1 222.7,113.2 250,57.8 277.3,113.2 338.5,122.1 
	294.2,165.2 304.7,226.1 "/>
<g>
	<polygon class="st1" points="405.9,233.3 370.1,252.2 377,212.3 348,184 388,178.2 405.9,141.9 423.8,178.2 463.9,184 434.9,212.3 
		441.8,252.2 	"/>
	<polygon class="st1" points="94.1,233.3 58.2,252.2 65.1,212.3 36.1,184 76.2,178.2 94.1,141.9 112,178.2 152,184 123,212.3 
		129.9,252.2 	"/>
</g>
<g>
	<path class="st1" d="M787,461.8c-37.9,0-66.7-34.9-97.3-52.6c-31.6-18.3-76-26.4-94.3-58c-17.7-30.6-3.1-72.8-3.1-110.6
		c0-37.9-14.6-80,3.1-110.6c18.3-31.6,62.7-39.7,94.3-58c30.6-17.7,59.5-52.6,97.3-52.6c37.9,0,66.7,34.9,97.3,52.6
		c31.6,18.3,76,26.4,94.3,58c17.7,30.6,3.1,72.8,3.1,110.6c0,37.9,14.6,80-3.1,110.6c-18.3,31.6-62.7,39.7-94.3,58
		C853.7,427,824.9,461.8,787,461.8z"/>
	<circle class="st0" cx="787" cy="106.4" r="37.6"/>
	<circle class="st2" cx="665" cy="170.6" r="37.6"/>
	<circle class="st2" cx="665" cy="311.4" r="37.6"/>
	<circle class="st2" cx="787" cy="371.1" r="37.6"/>
	<circle class="st2" cx="909" cy="311.4" r="37.6"/>
	<circle class="st2" cx="909" cy="170.6" r="37.6"/>
</g>
<path class="st1" d="M342.8-120.4c-19.2,0-33.9-17.7-49.4-26.7c-16-9.3-38.6-13.4-47.9-29.5c-9-15.5-1.6-36.9-1.6-56.2
	c0-19.2-7.4-40.6,1.6-56.2c9.3-16,31.8-20.2,47.9-29.5c15.5-9,30.2-26.7,49.4-26.7c19.2,0,33.9,17.7,49.4,26.7
	c16,9.3,38.6,13.4,47.9,29.5c9,15.5,1.6,36.9,1.6,56.2c0,19.2,7.4,40.6-1.6,56.2c-9.3,16-31.8,20.2-47.9,29.5
	C376.7-138.1,362.1-120.4,342.8-120.4z"/>
<circle class="st0" cx="342.8" cy="-300.9" r="19.1"/>
<circle class="st2" cx="280.9" cy="-268.3" r="19.1"/>
<circle class="st2" cx="280.9" cy="-196.8" r="19.1"/>
<circle class="st2" cx="342.8" cy="-166.5" r="19.1"/>
<circle class="st2" cx="404.8" cy="-196.8" r="19.1"/>
<circle class="st2" cx="404.8" cy="-268.3" r="19.1"/>
<g>
	<polygon class="st1" points="125.2,369.4 89.4,388.2 96.3,348.3 67.3,320.1 107.3,314.2 125.2,277.9 143.2,314.2 183.2,320.1 
		154.2,348.3 161.1,388.2 	"/>
	<polygon class="st1" points="374.8,369.4 338.9,388.2 345.8,348.3 316.8,320.1 356.8,314.2 374.8,277.9 392.7,314.2 432.7,320.1 
		403.7,348.3 410.6,388.2 	"/>
</g>
<polygon class="st1" points="250,423.4 214.2,442.2 221,402.3 192,374.1 232.1,368.3 250,332 267.9,368.3 308,374.1 279,402.3 
	285.8,442.2 "/>
</svg>
