<?xml version="1.0" encoding="utf-8"?>
<!-- Generator: Adobe Illustrator 21.1.0, SVG Export Plug-In . SVG Version: 6.00 Build 0)  -->
<svg version="1.1" id="Layer_1" xmlns="http://www.w3.org/2000/svg" xmlns:xlink="http://www.w3.org/1999/xlink" x="0px" y="0px"
	 viewBox="0 0 500 500" style="enable-background:new 0 0 500 500;" xml:space="preserve">
<style type="text/css">
	.st0{fill:#F99F1E;}
	.st1{fill:#415376;}
	.st2{fill:#FFFFFF;}
	.st3{fill:none;stroke:#415376;stroke-width:8;stroke-miterlimit:10;}
</style>
<polygon class="st0" points="-300.6,197.3 -355.2,226.1 -344.8,165.2 -389,122.1 -327.9,113.2 -300.6,57.8 -273.2,113.2 
	-212.1,122.1 -256.3,165.2 -245.9,226.1 "/>
<g>
	<polygon class="st1" points="-144.6,233.3 -180.4,252.2 -173.6,212.3 -202.6,184 -162.5,178.2 -144.6,141.9 -126.7,178.2 
		-86.7,184 -115.6,212.3 -108.8,252.2 	"/>
	<polygon class="st1" points="-456.5,233.3 -492.3,252.2 -485.5,212.3 -514.5,184 -474.4,178.2 -456.5,141.9 -438.6,178.2 
		-398.5,184 -427.5,212.3 -420.7,252.2 	"/>
</g>
<g>
	<path class="st1" d="M798,471.2c-37.9,0-66.7-34.9-97.3-52.6c-31.6-18.3-76-26.4-94.3-58c-17.7-30.6-3.1-72.8-3.1-110.6
		c0-37.9-14.6-80,3.1-110.6c18.3-31.6,62.7-39.7,94.3-58c30.6-17.7,59.5-52.6,97.3-52.6c37.9,0,66.7,34.9,97.3,52.6
		c31.6,18.3,76,26.4,94.3,58c17.7,30.6,3.1,72.8,3.1,110.6c0,37.9,14.6,80-3.1,110.6c-18.3,31.6-62.7,39.7-94.3,58
		C864.7,436.3,835.9,471.2,798,471.2z"/>
	<circle class="st0" cx="798" cy="115.8" r="37.6"/>
	<circle class="st2" cx="676" cy="179.9" r="37.6"/>
	<circle class="st2" cx="676" cy="320.8" r="37.6"/>
	<circle class="st2" cx="798" cy="380.5" r="37.6"/>
	<circle class="st2" cx="920" cy="320.8" r="37.6"/>
	<circle class="st2" cx="920" cy="179.9" r="37.6"/>
</g>
<path class="st1" d="M342.8-120.4c-19.2,0-33.9-17.7-49.4-26.7c-16-9.3-38.6-13.4-47.9-29.5c-9-15.5-1.6-36.9-1.6-56.2
	c0-19.2-7.4-40.6,1.6-56.2c9.3-16,31.8-20.2,47.9-29.5c15.5-9,30.2-26.7,49.4-26.7c19.2,0,33.9,17.7,49.4,26.7
	c16,9.3,38.6,13.4,47.9,29.5c9,15.5,1.6,36.9,1.6,56.2c0,19.2,7.4,40.6-1.6,56.2c-9.3,16-31.8,20.2-47.9,29.5
	C376.7-138.1,362.1-120.4,342.8-120.4z"/>
<circle class="st0" cx="342.8" cy="-300.9" r="19.1"/>
<circle class="st2" cx="280.9" cy="-268.3" r="19.1"/>
<circle class="st2" cx="280.9" cy="-196.8" r="19.1"/>
<circle class="st2" cx="342.8" cy="-166.5" r="19.1"/>
<circle class="st2" cx="404.8" cy="-196.8" r="19.1"/>
<circle class="st2" cx="404.8" cy="-268.3" r="19.1"/>
<g>
	<polygon class="st1" points="-425.3,369.4 -461.1,388.2 -454.3,348.3 -483.3,320.1 -443.2,314.2 -425.3,277.9 -407.4,314.2 
		-367.3,320.1 -396.3,348.3 -389.5,388.2 	"/>
	<polygon class="st1" points="-175.8,369.4 -211.6,388.2 -204.8,348.3 -233.8,320.1 -193.7,314.2 -175.8,277.9 -157.9,314.2 
		-117.8,320.1 -146.8,348.3 -140,388.2 	"/>
</g>
<polygon class="st1" points="-300.6,423.4 -336.4,442.2 -329.5,402.3 -358.5,374.1 -318.5,368.3 -300.6,332 -282.6,368.3 
	-242.6,374.1 -271.6,402.3 -264.7,442.2 "/>
<rect x="98" y="227.9" class="st1" width="304" height="35"/>
<rect x="98" y="281.3" class="st1" width="304" height="35"/>
<rect x="98" y="334.6" class="st1" width="304" height="35"/>
<rect x="98" y="388" class="st1" width="304" height="35"/>
<circle class="st1" cx="109.5" cy="184.2" r="10.2"/>
<circle class="st1" cx="180.1" cy="118.4" r="10.2"/>
<circle class="st1" cx="250" cy="128.6" r="10.2"/>
<circle class="st1" cx="321.2" cy="85.5" r="10.2"/>
<circle class="st1" cx="388.9" cy="145.4" r="10.2"/>
<line class="st3" x1="109.5" y1="184.2" x2="180.1" y2="118.4"/>
<line class="st3" x1="180.1" y1="118.4" x2="250" y2="128.6"/>
<line class="st3" x1="250" y1="128.6" x2="321.2" y2="85.5"/>
<line class="st3" x1="321.2" y1="85.5" x2="388.9" y2="145.4"/>
<rect x="157.7" y="211.7" class="st2" width="25.3" height="252.7"/>
</svg>
