<svg xmlns="http://www.w3.org/2000/svg" width="500" height="500" viewBox="0 0 500 500">
  <defs>
    <style>
      .cls-1 {
        fill: none;
      }

      .cls-2 {
        fill: #efdf00;
      }

      .cls-3 {
        fill: #174b97;
      }
    </style>
  </defs>
  <title>Team_Logos</title>
  <g id="Boston">
    <g>
      <rect class="cls-1" x="32.5" y="38.5" width="435" height="435"/>
      <g>
        <path d="M328.32,56.53l22.13,18.4V333.56l-100,58.57L147.91,332V105.91l-5.75-4.17H262.55l8.69,7.85V136.8L226.1,162.9V121H173.84V316.79l0,1.83L250.58,364,323.82,322V192.88l-19.75-17.83,19.75-12.17V86.44L291.26,56.53H70.14L94.25,75V358.68l0,1.8,154.62,93.43,1.67,1,152.77-91.76V56.53ZM271.68,292.81l-21.3,11-24.1-13.08V226l-4.5-1.06,40.93-24.72,8.66,8.14Z"/>
        <g>
          <path class="cls-2" d="M319.57,53.35l27.7,23.06V331.81l-96.84,56.62-99.35-58.28V104.91H261.33l6.74,6.09v24L229.28,157.4V117.85H170.67V320.4l80,47.27L327,323.78V191.47l-17.66-15.94L327,164.65V85L292.5,53.35H60.78l30.3,23.2v285.7L250.6,458.65l155.91-93.73,0-311.56ZM97.42,358.68V73.42L79.5,59.7H290l30.63,28.13v73.28L298.8,174.57l21.85,19.72v126l-70.12,40L177,316.8l0,0V124.2h45.92v44.2l51.49-29.76V108.19l-10.51-9.49-.14-.12H132.39l12.35,9V333.78l105.81,62.07,103.07-60.53V73.44L337.32,59.87l-.2-.17h63.07V361.41L250.53,451.19,97.44,358.69ZM224.52,122.82v-.08h.1Z"/>
          <polygon class="cls-3" points="297.18 306.28 297.18 202.15 279.83 186 263.13 196.24 274.52 206.96 274.85 294.45 250.59 307.5 223.09 292.58 223.09 292.53 200.4 304.48 250.54 332.77 297.18 306.28"/>
          <polygon class="cls-3" points="224.52 122.82 224.62 122.74 224.52 122.74 224.52 122.82"/>
          <polygon class="cls-3" points="200.4 304.48 200.4 142.7 222.84 124.2 177.01 124.2 177.01 316.79 177.04 316.8 200.4 304.48"/>
          <polygon class="cls-3" points="200.69 204.18 297.18 148.63 297.18 95.04 277.9 77.63 263.91 98.69 274.42 108.19 274.42 138.63 222.93 168.4 222.93 168.3 200.69 204.18"/>
          <polygon class="cls-3" points="119.95 346.59 119.95 77.63 277.9 77.63 289.81 59.7 79.5 59.7 97.42 73.42 97.42 358.68 97.44 358.69 119.95 346.59"/>
          <polygon class="cls-3" points="119.95 346.59 250.54 423.62 377.53 348.62 377.53 76.03 337.32 59.87 353.62 73.44 353.62 335.32 250.55 395.85 144.74 333.78 144.74 333.74 119.95 346.59"/>
          <path class="cls-2" d="M250.6,307.5l24.26-13L274.52,207l-10.75-10.11-.22-.21-.44-.42-49.65,30,9.62,2.26v64.09ZM229.44,288.8V224l32.84-19.84,5.91,5.56.31,81.46L250.15,300Z"/>
        </g>
      </g>
    </g>
  </g>
</svg>
