<svg xmlns="http://www.w3.org/2000/svg" viewBox="0 0 40.92 45.2"><defs><style>.cls-1{fill:none;}.cls-2{fill:#f99d0b;}.cls-3{fill:#fff;}</style></defs><title>high_noon_white</title><g id="Layer_1" data-name="Layer 1"><circle class="cls-1" cx="20.36" cy="36.1" r="3.9"/><circle class="cls-1" cx="7.96" cy="15.5" r="3.9"/><circle class="cls-1" cx="7.96" cy="29.9" r="3.9"/><circle class="cls-1" cx="32.86" cy="29.9" r="3.9"/><circle class="cls-1" cx="32.86" cy="15.5" r="3.9"/><circle class="cls-2" cx="20.36" cy="9" r="3.9"/><path class="cls-3" d="M40,11.4c-1.8-3.2-6.3-4.1-9.7-6C27.1,3.6,24.3,0,20.4,0s-6.8,3.5-9.9,5.4S2.9,8.2,1,11.4c-1.9,3-.4,7.3-.4,11.2,0,3.7-1.5,8,.4,11.2,1.6,3.4,6.3,4.2,9.5,6s6,5.4,9.9,5.4,6.9-3.5,10.1-5.4,7.6-2.8,9.5-6c1.9-3,.4-7.3.4-11.2C40.4,18.9,41.9,14.6,40,11.4ZM20.4,12.9A3.9,3.9,0,1,1,24.3,9,3.9,3.9,0,0,1,20.4,12.9ZM8,33.8a3.9,3.9,0,1,1,3.9-3.9A3.9,3.9,0,0,1,8,33.8ZM8,19.4a3.9,3.9,0,1,1,3.9-3.9A3.9,3.9,0,0,1,8,19.4ZM20.4,40a3.9,3.9,0,1,1,3.9-3.9A3.9,3.9,0,0,1,20.4,40Zm12.5-6.2a3.9,3.9,0,1,1,3.9-3.9A3.9,3.9,0,0,1,32.9,33.8Zm0-14.4a3.9,3.9,0,1,1,3.9-3.9A3.9,3.9,0,0,1,32.9,19.4Z" transform="translate(-0.04 0)"/></g></svg>