<?xml version="1.0" encoding="utf-8"?>
<!-- Generator: Adobe Illustrator 21.1.0, SVG Export Plug-In . SVG Version: 6.00 Build 0)  -->
<svg version="1.1" id="Layer_1" xmlns="http://www.w3.org/2000/svg" xmlns:xlink="http://www.w3.org/1999/xlink" x="0px" y="0px"
	 viewBox="0 0 612 792" style="fill: #f99e1a; enable-background:new 0 0 612 792;" xml:space="preserve">
<rect x="114.8" y="561.4" width="97.5" height="53.6"/>
<path d="M212.3,272.6c0.2-3.2,0.2-6.4,0-9.6c-7.6-66-48.8-86.1-48.8-86.1s-41.1,20.1-48.8,86.1c0,2.9,0,9.6,0,9.6v251.5h97.5V272.6z
	"/>
<rect x="257.2" y="561.4" width="97.5" height="53.6"/>
<path d="M354.8,272.6c0.2-3.2,0.2-6.4,0-9.6c-7.6-66-48.8-87-48.8-87s-41.1,20.1-48.8,86.1c0,2.9,0,9.6,0,9.6v252.5h97.5V272.6z"/>
<rect x="399.7" y="561.4" width="97.5" height="53.6"/>
<path d="M497.3,272.6c0,0,0-7.6,0-9.6c-7.6-66-48.8-86.1-48.8-86.1s-41.1,20.1-48.8,86.1c0,2.9,0,9.6,0,9.6v251.5h97.5V272.6z"/>
</svg>
