<?xml version="1.0" encoding="utf-8"?>
<!-- Generator: Adobe Illustrator 21.1.0, SVG Export Plug-In . SVG Version: 6.00 Build 0)  -->
<svg version="1.1" id="Layer_1" xmlns="http://www.w3.org/2000/svg" xmlns:xlink="http://www.w3.org/1999/xlink" x="0px" y="0px"
	 viewBox="0 0 612 792" style="fill: #dc241f; enable-background:new 0 0 612 792;" xml:space="preserve">
<path d="M496.3,311.9H390.1V205.7c0-21.7-17.6-39.2-39.2-39.2h-89.9c-21.7,0-39.2,17.6-39.2,39.2l0,0v106.1H115.7
	c-21.7,0-39.2,17.6-39.2,39.2v89.9c0,21.7,17.6,39.2,39.2,39.2h106.1v106.1c0,21.7,17.6,39.2,39.2,39.2h89.9
	c21.7,0,39.2-17.6,39.2-39.2V480.1h106.1c21.7,0,39.2-17.6,39.2-39.2v-89.9C535.5,329.4,517.9,311.9,496.3,311.9z"/>
</svg>
