<?xml version="1.0" encoding="utf-8"?>
<!-- Generator: Adobe Illustrator 19.2.1, SVG Export Plug-In . SVG Version: 6.00 Build 0)  -->
<svg version="1.1" xmlns="http://www.w3.org/2000/svg" xmlns:xlink="http://www.w3.org/1999/xlink" x="0px" y="0px"
	 viewBox="0 0 800 800" style="enable-background:new 0 0 800 800;" xml:space="preserve">
<style type="text/css">
	.st0{fill:#FFFFFF;}
	.st1{fill:#F39E32;}
</style>
<g id="source">
</g>
<g id="Layer_1">
	<g>
		<polygon class="st0" points="135.7,709.6 106.7,684.6 106.7,213.6 135.7,184.6 		"/>
		<polygon class="st0" points="482,699.7 531.5,758.5 615.1,758.1 657.5,715.7 657.5,138.2 611,94.2 485.5,94.2 504.3,142.6 
			504.3,528.6 475.3,567.6 324.7,567.6 295.7,528.6 295.7,142.6 314.5,94.2 189,94.2 142.5,138.2 142.5,715.7 184.9,758.1 
			268.5,758.5 318,699.7 		"/>
		<polygon class="st0" points="664.3,709.6 693.3,684.6 693.3,213.6 664.3,184.6 		"/>
		<polygon class="st0" points="484.3,136.6 449.3,41.5 350.7,41.5 315.7,136.6 		"/>
		<path class="st0" d="M311.7,153.6v360h176.6v-360H311.7z M452.3,460l-7.5,9.2c-1.7,2.1-4.2,3.3-6.9,3.3h-75.8
			c-2.7,0-5.2-1.2-6.9-3.3l-7.5-9.2c-1.3-1.6-2-3.6-2-5.6v-259c0-2.4,1-4.8,2.8-6.5l13.6-12.9c1.7-1.6,3.8-2.4,6.1-2.4h63.5
			c2.3,0,4.5,0.9,6.1,2.4l13.6,12.9c1.8,1.7,2.8,4,2.8,6.5v259C454.3,456.5,453.6,458.4,452.3,460z"/>
		<polygon class="st0" points="465.8,554.1 488.3,524.1 311.7,524.1 334.2,554.1 		"/>
	</g>
</g>
</svg>
