<?xml version="1.0" encoding="utf-8"?>
<!-- Generator: Adobe Illustrator 19.2.1, SVG Export Plug-In . SVG Version: 6.00 Build 0)  -->
<svg version="1.1" xmlns="http://www.w3.org/2000/svg" xmlns:xlink="http://www.w3.org/1999/xlink" x="0px" y="0px"
	 viewBox="0 0 800 800" style="enable-background:new 0 0 800 800;" xml:space="preserve">
<style type="text/css">
	.st0{fill:#FFFFFF;}
	.st1{fill:#F39E32;}
</style>
<g id="source">
</g>
<g id="Layer_1">
	<g>
		<path class="st0" d="M400,150.7c-58.1-0.7-167,18.9-204.1,110c-35.5,87.1,1.5,124.5-3,196.5c0,0,42.1,1.8,88.8-26.9
			c0,0-22,24-40,30.7c0,0,150-6,207.3-102.7c0,0-9.3,38.7-30.7,66.7c0,0,86.7-45.7,114.7-144.7c2,13.8,17,46.3,24.4,57.9
			c13.4,21,31.6,39.5,37.2,64.5c4.3,19.4,4,41.5-0.3,61c0,0,34.7-49.3,24.7-143.3S555.1,152.6,400,150.7z"/>
		<path class="st0" d="M176.5,240.4l-12.2-22.8v0l-86-160L57,40.2c-1.6-1.3-4-0.2-4,1.9V83l34,224.2l37.3,68.8
			c1.7,3.1,4.9,5.1,8.5,5.1H143C143,381,130.3,310.4,176.5,240.4z"/>
		<path class="st0" d="M92.3,416.3l-22.9,27.9c-6.4,7.8-7.9,18.6-3.9,27.9l49.3,114.6c5,11.5,16.3,19,28.8,19h15.6l-25.8-213.8h-5.2
			c-3.5,0-6.8-1.9-8.5-5.1l-33.8-62.4l0.5,63.7c-0.1,8,1,20,5.1,26.9L92.3,416.3z"/>
		<polygon class="st0" points="286.5,594.3 281.5,609.3 205,646.3 199.5,605.7 		"/>
		<polygon class="st0" points="290.5,667.3 221.5,730.3 258.5,760.3 292.5,678.8 		"/>
		<path class="st0" d="M623.5,240.4l12.2-22.8v0l86-160L743,40.2c1.6-1.3,4-0.2,4,1.9V83l-34,224.2l-37.3,68.8
			c-1.7,3.1-4.9,5.1-8.5,5.1H657C657,381,669.7,310.4,623.5,240.4z"/>
		<path class="st0" d="M400,94.7c-134.1,0-209.7,87.5-230,114.9l11.9,23.2c6.8-9.4,14.6-18.7,23.8-27.7
			c80-79.3,194.4-79.3,194.4-79.3s114.4,0,194.4,79.3c9.2,9.1,17,18.4,23.8,27.7l11.9-23.2C609.7,182.2,534.1,94.7,400,94.7z"/>
		<path class="st0" d="M707.7,416.3l22.9,27.9c6.4,7.8,7.9,18.6,3.9,27.9l-49.3,114.6c-5,11.5-16.3,19-28.8,19h-15.6l25.8-213.8h5.2
			c3.5,0,6.8-1.9,8.5-5.1l33.8-62.4l-0.5,63.7c0.1,8-1,20-5.1,26.9L707.7,416.3z"/>
		<polygon class="st0" points="496.5,594.3 501.5,609.3 578,646.3 583.5,605.7 		"/>
		<polygon class="st0" points="492.5,667.3 561.5,730.3 524.5,760.3 490.5,678.8 		"/>
	</g>
</g>
</svg>
