<?xml version="1.0" encoding="utf-8"?>
<!-- Generator: Adobe Illustrator 19.2.1, SVG Export Plug-In . SVG Version: 6.00 Build 0)  -->
<svg version="1.1" xmlns="http://www.w3.org/2000/svg" xmlns:xlink="http://www.w3.org/1999/xlink" x="0px" y="0px"
	 viewBox="0 0 800 800" style="enable-background:new 0 0 800 800;" xml:space="preserve">
<style type="text/css">
	.st0{fill:#FFFFFF;}
	.st1{fill:#F39E32;}
</style>
<g id="source">
</g>
<g id="Layer_1">
	<g>
		<path class="st0" d="M400,74.9l129.7,149.5l45-36l80.5,68l36-184.5l-82.5,109.5l-9.4-48.3c-1.6-8.3-7.2-15.3-14.9-18.7L427.3,44.9
			c-17.4-7.7-37.1-7.7-54.5,0l-157.1,69.5c-7.7,3.4-13.3,10.4-14.9,18.7l-9.4,48.3L108.9,71.9l36,184.5l80.5-68l45,36L400,74.9z"/>
		<polygon class="st0" points="400,529.5 552.4,416.2 620.4,341.5 661.8,407.5 669.8,388.8 648.4,273.8 575.3,215.6 534.1,248.2 
			528.6,236.3 400,86.9 270.2,237.7 265.9,248.2 224.7,215.6 151.6,273.8 130.2,388.8 138.2,407.5 179.6,341.5 247.6,416.2 		"/>
		<path class="st0" d="M400,760.8l154.1-119.3l37-118h33l23-79l-30-61l-58.1,57c-3.2,3.3-5.5,7.3-6.8,11.7l-6.6,25.3l-145.6,98
			l-145.6-98l-6.6-25.3c-1.2-4.4-3.6-8.4-6.8-11.7l-58.1-57l-30,61l23,79h33l37,118L400,760.8z"/>
	</g>
</g>
</svg>
