<?xml version="1.0" encoding="utf-8"?>
<!-- Generator: Adobe Illustrator 19.2.1, SVG Export Plug-In . SVG Version: 6.00 Build 0)  -->
<svg version="1.1" xmlns="http://www.w3.org/2000/svg" xmlns:xlink="http://www.w3.org/1999/xlink" x="0px" y="0px"
	 viewBox="0 0 800 800" style="enable-background:new 0 0 800 800;" xml:space="preserve">
<style type="text/css">
	.st0{fill:#FFFFFF;}
	.st1{fill:#F39E32;}
</style>
<g id="source">
</g>
<g id="Layer_1">
	<g>
		<path class="st0" d="M360,161.9c18.9,0,25.5,33.9,27.8,54.4c1.3,11.3,4.3,22.4,8.9,32.8l29,65.6c-39-10-70-37-70-37l20-18
			c0,0-42.5,8.5-84,99c-44.5,97-132.2,174.8-154.8,196.1c-3.3,3.2-7.5,5.3-12,6.2L78,570.5c-0.2,0-0.3,0-0.4,0c-2,0-2.8-2.8-0.9-3.8
			c34-17.3,58.7-33.1,115.5-184.4c57.3-154.7,133.3-213.3,164-220C357.5,162,358.8,161.9,360,161.9"/>
		<path class="st0" d="M719.6,313.3c2.6-4.1,4.1-8.7,4.4-13.5l0.3-18.7c0.1-0.9-1-1.5-1.7-0.9l-30.1,25c-5.3,3.6-11.1,6.1-17.3,7.5
			l-32.6,7.9l22.7-25.4c2.2-2.4,3.8-5.2,5-8.2l7.7-20.3c1-2.7,1.5-5.6,1.2-8.5l-0.5-6.1c-0.1-1-1.3-1.4-2-0.7
			c-18.1,17.5-41.2,30.2-41.2,30.2s62-217-201-239.1c-249.7-21-264,153.1-250,207.1c0,0-17.4-2.8-26.9-13.9
			c-1.2-1.4-3.5-0.7-3.6,1.2l-1.2,15.4c-0.5,6.4,0.8,12.9,3.8,18.6l15.4,29.2L111,263.4c-3.5-2.1-6.4-5.2-8.3-8.9l-3.9-9.5
			c-1.2-2.3-4.5-2-5.3,0.5l-2.3,14.4c-1.9,6.5-2,13.4,0.1,19.8c3.9,12.5,10.1,34,30.8,55H110c-5,0-9.8-2.2-13.1-6l-9.3-10.7
			c-0.8-0.9-2.4-0.6-2.6,0.7l-1.9,8.3c-1,4.3-0.7,8.8,0.9,12.9c4.5,12,15.8,37.6,36.2,56.3c20.1,18.3,32.3,26.1,35.6,51.8
			c8.7-19.6,17.8-44.1,27.3-69.8c25.5-68.7,51-129.2,87.2-171.2c27.4-31.8,59.8-49.7,81.5-54.4c2.1-0.5,4.2-0.7,6.3-0.7
			c9.5,0,22.6,2.7,31.3,25.1c3.9,10,5.7,22.8,7.4,37.9c1.1,10,4.8,19.9,8.9,29.2l27,65.6l2.4,5.4l2.1,0.9c0,0,60.5-38,85-49
			c24.5-11,70.6-0.5,69,22c-0.8,10.8-4.5,16.4-7,19c-1.2,1.3-1.3,3.3-0.2,4.6l9.2,10.4v44.5l-3.7,2.6c-0.8,0.5-1.1,1.5-0.9,2.4
			c3.2,13,15.2,43.5,15.2,43.5c0.4,36-12.4,80.4-19.5,94.5c-2.8,5.5-0.4,8.9,2.9,9.9l6.4,1.6c4.9,0.7,7.2-0.7,9.1-3.9
			c5.6-9.2,17.6-27.2,32.6-38.6c21.4-16.3,32.3-41.3,35.5-49.7c0.3-0.8-0.7-1.6-1.4-1l-18.8,14.2c-1.5,1.3-3.2,2.4-5.1,3.1
			l-18.7,7.4l52.8-45.5l44-65.9c0.6-0.9-0.5-1.9-1.3-1.3l-28.8,19.6c-4,3.1-8.7,5.1-13.6,6l-7,1.2
			C698.9,344.9,713.1,323.7,719.6,313.3z"/>
		<path class="st0" d="M431.4,444.3l1.7-7.1c0.7-2.9,2.7-5.3,5.4-6.5c8.5-3.8,13.3-9.3,31.7-13.4c45.2-10,99.1-37.9,97-37.3
			l-0.7,13.7h9.7v10l14,1.3c0,0-51.3,27.3-83.3,33.3c-30.4,5.7-55-2.3-73.4,7.6C432.4,446.5,431.1,445.5,431.4,444.3z"/>
		<path class="st0" d="M395.2,444.9l-0.1-8.2c-0.5-2.9-2-6-4.9-7c-15.7-5.5-19.5-14.9-36.5-19c-17.1-4.2-48.6-18.8-66.5-28.9l0,0
			l-15.4,26v0c14.7,7,32.1,14.6,46.5,18.6c29.8,8.3,57.1,8.4,74.6,19.9C394.1,447,395.4,446.1,395.2,444.9z"/>
		<path class="st0" d="M479.6,528.3V525c-20.3,3-29.3,13.7-29.3,13.7c-1.2-6.6-1.7-9.7-1.7-9.7c-14,16-41,17.3-41,17.3
			c-33.8-24-42.8-24-90-17.7c-32.8,4.4-67,58.5-17.5,119.5c47.9,59,52.8,90.5,52.8,90.5c12.2-7.8,16-20,16-20s1.9,9.7,10.8,20.2
			c10.3,12.2,10.2,20.2,10.2,20.2l7.2-7.5l5.5,5.9c0,0,2-6.1,9.8-15.2c9.8-11.5,18.6-22.8,18.6-22.8c4.7,11,3.7,21.7,3.7,21.7
			c27-24,90.3-97.7,92.3-151.7S479.6,528.3,479.6,528.3z M458.6,673.2c0,0-37-38.5-49-38.5s-32.7,1.7-41.5,22.5l-11.7,2.4
			c-3,0.3-5.6,2.2-7,4.9l-2.3,4.7c0,0-50.8-58.9-36-97c10-25.8,36.5-27.5,65.4-22.2c6.7,1.2,21.4,10.6,24.4,11.3l2.5,0.6
			c4.5,1.1,11.2,1.6,15.4-0.4c15.7-7.4,62.9-14.2,74.9,8.1C514,607.7,483.6,631,458.6,673.2z"/>
	</g>
</g>
</svg>
