<?xml version="1.0" encoding="utf-8"?>
<!-- Generator: Adobe Illustrator 19.2.1, SVG Export Plug-In . SVG Version: 6.00 Build 0)  -->
<svg version="1.1" xmlns="http://www.w3.org/2000/svg" xmlns:xlink="http://www.w3.org/1999/xlink" x="0px" y="0px"
	 viewBox="0 0 800 800" style="enable-background:new 0 0 800 800;" xml:space="preserve">
<style type="text/css">
	.st0{fill:#FFFFFF;}
	.st1{fill:#F39E32;}
</style>
<g id="source">
</g>
<g id="Layer_1">
	<g>
		<path class="st0" d="M354.7,100.7c0,0-68,26-78,126l-35-46c0,0,5,43-26,98s24,125,51,144s13.2,37.3,91,76c9,4.5,27.5,14.5,28,33
			c0.6,23,17,45,30,52c0,0-13-52,10-68c17.2-12-6,46-6,46s96-40,99-153c0,0,65,31,63,115c0,0,23.3-30.3,18-57.7
			c-5.3-27.3,4.8-23.9,2-59.3c-1.9-24.3,20.6-77.3-29.4-114.7s1.3-82.7,33.3-100.7c0,0-103.3-10-142,88c0,0-50.7-64-3.3-141.3
			c0,0-102,30.7-93.3,154.7c0,0-36.7-57.3-38-95.7C328.2,174.3,333,130.7,354.7,100.7z"/>
		<path class="st0" d="M231,56c0,0-15.3,28.7,0,63.3s2,67.3-20,76.7c0,0,12-11.3,0-38.7S187,93.3,231,56z"/>
		<path class="st0" d="M684.4,339.3c0,0-4.7,35.5-39.3,49.3c-35.3,14.2-68.7,66.7-31.3,151.3c37.3,84.7,8,158.7,22.7,181.3
			c0,0,2-22.7,16-40c14-17.3,17.3-28.7,17.3-28.7s26,24,14.7,65.3c0,0,139.3-80,43.3-148.7c0,0,18,51.3-34,64c0,0,8-49.3,28-70
			c20-20.7,11.3-41.3-24.7-81.3s-30.7-68-17.7-87.3C692.4,375.3,693.7,353.3,684.4,339.3z"/>
		<path class="st0" d="M262.4,413.3c0,0-42-16.7-70,30.7c0,0-16.2-81.3-153.8-54c0,0,106.5,37.3,68.5,101.3s16.7,107.3,16.7,107.3
			s23.3,12.7,10.7,31.3c-12.7,18.7-13,55.7,11,71.7s13.8,29.5,32,42.3c0,0-3.5-46.6,3-59.3c7.8-15.2,22-30,35.3,2.7
			c13.3,32.7,20,48.7,30.7,50.7c0,0-9.3-20.7-6.7-41.3c2.1-16.3-7.8-60.9,12.7-88.7c25.5-34.7-4.3-79,15-121
			C281.1,457.2,277,428.7,262.4,413.3z"/>
		<path class="st0" d="M462.7,704.2c-5.5-8.5-9.5-25,16.5-40c29.1-16.8,36.5-54,36.5-54s5.5,19.5,0,27.5c0,0,10-15.5,24-17.5
			s18-13.5,18-13.5s3,14-8.5,21.5c0,0,30.7-0.3,50.5-37c0,0,3,19.5-5.5,27c0,0,24.5-6,31.5-21c0,0,1,19.5-8.5,25.5c0,0,14.5,3,28-14
			l-2.5,21.5c0,0-14.5,16.5-17,34s-8.5,23-20,26.5s-32.8-25-78.5,3.5C484.6,720.7,470.7,716.4,462.7,704.2z"/>
		<path class="st0" d="M422.2,667.2c0,0,10.1,34-25.7,44.5s-63.3-41-100.3-18.5s-70.5-34-70.5-45l5.5-24.5c0,0,9,32,26,33.5
			c0,0-14.5-15-15-43c0,0,13.7,23.5,33.6,24.5c0,0-18.1-14.5-11.6-39.5c0,0,21,29,57.5,39.5c0,0-8-10.5-8-23.5c0,0,10.9,17,28,23
			c14.9,5.2,25.5,14.3,25.5,14.3s-14.5-18.3-7-36.3c0,0,4,17.5,18.5,26.5C399.9,655.8,406.1,691.2,422.2,667.2z"/>
		<path class="st0" d="M67,298c0,0-4.7,25.9,19.3,56.7c0,0-29.3,4-32.7-25.3C50.4,300,67,298,67,298z"/>
		<path class="st0" d="M630.4,206.7c0,0,3.3-39.3,34-60.7c30.7-21.3,25.3-45.3,25.3-45.3S732.4,172,630.4,206.7z"/>
	</g>
</g>
</svg>
