<?xml version="1.0" encoding="utf-8"?>
<!-- Generator: Adobe Illustrator 19.2.1, SVG Export Plug-In . SVG Version: 6.00 Build 0)  -->
<svg version="1.1" xmlns="http://www.w3.org/2000/svg" xmlns:xlink="http://www.w3.org/1999/xlink" x="0px" y="0px"
	 viewBox="0 0 800 800" style="enable-background:new 0 0 800 800;" xml:space="preserve">
<style type="text/css">
	.st0{fill:#FFFFFF;}
	.st1{fill:#F39E32;}
</style>
<g id="source">
</g>
<g id="Layer_1">
	<g>
		<path class="st0" d="M296.9,107.6c0,0-10,24,7,35s26.1,12.5,15,34c-14.8,28.6,3.1,78.8,23,114.7c1.5,2.7,5.2,3.3,7.5,1.2
			c9.7-8.7,33.3-29.5,55.5-43.9c24.8-16.1,35.5-56,10-70c-20.9-11.5-8-45,27-53c0,0-25,27.7,5,56c23.6,22.3-39.7,75.6,2,103.1
			c3.5,2.3,8.3,1.3,10.5-2.3c6.5-10.8,22.6-33.3,49.6-46.8c37-18.5,41-35,41-35s3,18-8,30.5c-9.9,11.3-29.5,48.4-16.6,78.3
			c1.8,4.1,7.5,4.4,9.7,0.4c4.4-8,12.4-19,25.4-23.8c0,0,31.5,42.5,23.8,98.7c-0.3,2.5,2.7,4,4.5,2.2c13.6-14,45.6-53.1,36.7-101.9
			c-7.3-40.3-27-8-37-75.5c-10.2-69-77.9-51.2-97-102c-15-40-38.5-50-78-37.5c0,0-58-65.5-116-15.5c0,0-52-12-72,13
			s-16,44.5-35,54.5c0,0-103.5,26.5-82.5,95.1c-63,20-70.5,99.4-49,136.9c16.1,28,21.5,60.9,23.3,75.6c0.4,3.2,4.3,4.5,6.5,2.2
			c14.6-15.1,51.1-57.1,39.8-87.3c-14-37.5-6-66.5-6-66.5s10,20,42,17c18.8-1.8,27.7,6.3,31.7,12.2c1.3,2,4.3,1.4,4.9-0.9
			c3.2-13.1,6.4-43.9-21.6-74.9c-37-41-20-65.5,10-76c0,0-19.1,46.6,23.5,73c30.6,19,36.5,41.4,37.5,52.1c0.2,2.6,3.3,3.8,5.3,2.1
			c14.6-12.5,53.8-50.8,40.7-93.8C280.4,136.6,238.4,151.6,296.9,107.6z"/>
		<path class="st0" d="M345.9,582.6l24.2,0.7c12.6,0.4,24.8,4.9,34.4,13.1c19.1,16.2,38.5,26,53.9,31.9c17.4,6.7,36.8,6.3,53.9-1.1
			c38.3-16.5,113.3-48.8,112.6-86.5c-0.8-40.7-0.9-60.6-11.2-82.3c-4.1-8.6-13.2-13.7-22.7-12.7c-140,13.8-184.5,13-245.1,13
			c-60.7,0-105.2,0.8-245.8-13.1c-9.1-0.9-17.8,3.9-21.7,12.2c-10.6,21.9-10.7,41.8-11.5,82.9c-0.7,37.7,74.3,70,112.6,86.5
			c17.1,7.4,36.5,7.8,53.9,1.1c15.4-5.9,34.7-15.7,53.9-31.9c9.6-8.2,21.8-12.7,34.4-13.1L345.9,582.6z"/>
		<path class="st0" d="M731.3,415.6v255.7l13.8-12.9c4.4-4.1,6.9-9.9,6.9-15.9V443.3c0-4.1-1.6-8.1-4.5-11L731.3,415.6z"/>
		<polygon class="st0" points="624.9,745.2 580.6,764.3 593.9,728.6 624.9,697.2 		"/>
		<g>
			<polygon class="st0" points="724.6,618.7 724.6,402.7 631.9,337.2 631.9,560.9 673.3,560.9 			"/>
			<polygon class="st0" points="673.3,574.9 631.9,574.9 631.9,742.6 665.9,725.9 724.6,682.6 724.6,632.7 			"/>
		</g>
	</g>
</g>
</svg>
