<?xml version="1.0" encoding="utf-8"?>
<!-- Generator: Adobe Illustrator 19.2.1, SVG Export Plug-In . SVG Version: 6.00 Build 0)  -->
<svg version="1.1" xmlns="http://www.w3.org/2000/svg" xmlns:xlink="http://www.w3.org/1999/xlink" x="0px" y="0px"
	 viewBox="0 0 800 800" style="enable-background:new 0 0 800 800;" xml:space="preserve">
<style type="text/css">
	.st0{fill:#FFFFFF;}
	.st1{fill:#F39E32;}
</style>
<g id="source">
</g>
<g id="Layer_1">
	<g>
		<path class="st0" d="M208.5,498c2.3,11.6,1.3,10.5-3.3,88.7c-5.5,92.2,40,158,40,158c-20.7-5.3-31.3-20.7-31.3-20.7l19.3,36.7
			c-110-77.3-115.3-164-115.3-164c-6,20-2.7,43.5-2.7,43.5c-82-231.1,49-334.5,49-334.5c27-76.4,99.5-108,99.5-108
			c-42-61.5-9-121.5-9-121.5s17.5,55.1,58.5,76.1c0,0-31-46-9-113c0,0,23,36,40,48c0,0,127-24,138,73c0,0,115,24,146,182
			c0,0,123.7,131.8,23,270c0,0,8.7-25.7,2.7-58.3c0,0-10.7,151.3-104.7,206.7c0,0,70.7-139.3,36.7-256.7c0,0-6,20-10.7,31.3
			c0,0-1.3-72.4-22-116.9c0,0-13.3,77.2-154.7,57.2c0,0,48.7-11.3,71.7-53.7c0,0-90.3,76-202.3,67.3c0,0,28.7-12,44.7-44
			c0,0-20.3,23.7-62,37.3C216.1,494,208.5,498,208.5,498"/>
		<path class="st0" d="M623.2,164l6,101.3c0,0,12.7,6.7,28.7,0l-3.3-95.3C654.5,170,639.2,155.3,623.2,164z"/>
		<circle class="st0" cx="693.9" cy="214.8" r="38.9"/>
		<path class="st0" d="M591.7,513.8c0,0-12.9-1-22.4,0.7c-1.3-5.8-6.4-10.2-12.7-10.2H437.2c-13.1,0-24,8.3-28.2,19.7h-15.8h-15.8
			c-4.2-11.4-15.1-19.7-28.2-19.7H229.9c-6.2,0-11.3,4.3-12.7,10c-8.3-1.5-18.5-0.5-18.5-0.5l-5.5,34.5c20.7-7.5,27.3,4.6,29.3,13.1
			l1,7.2l1.7,12.6c2.9,24.7,25.5,43.5,50.4,44l62.7,1.4c10.7,0.2,20.4-5.1,26.1-13.5c0,0,11.9-13.7,14.8-34
			c3.3-22.5,14-20.5,14-20.5s10.7-2,14,20.5c3,20.2,14.8,33.9,14.8,33.9c5.7,8.4,15.4,13.7,26.1,13.5l62.7-1.4
			c24.9-0.5,47.5-19.3,50.4-44l1.7-12.6l0.8-6.2c2-8.5,9.1-21.9,33.5-14.1L591.7,513.8z M357.3,540.3l-7.7,49.5
			c-1.4,8.9-9.1,15.5-18.1,15.5h-53.8c-16.2,0-29.7-12.3-31.1-28.4l-3.4-38c-0.7-8,5.6-14.9,13.6-14.9h86.5
			C352,524,358.6,531.8,357.3,540.3z M543.2,538.9l-3.4,38c-1.5,16.1-14.9,28.4-31.1,28.4h-53.8c-9,0-16.7-6.6-18.1-15.5l-7.7-49.5
			c-1.3-8.6,5.3-16.3,14-16.3h86.5C537.6,524,543.9,530.9,543.2,538.9z"/>
		<g>
			<path class="st0" d="M569.3,203.5c7.9,7.6,17.5,18.5,25.2,32.3l46.7-1.4v-35L569.3,203.5z"/>
			<path class="st0" d="M209.6,224.1l-142.4,8.2v19l122-3.6C193.8,241,200.7,232.1,209.6,224.1z"/>
		</g>
	</g>
</g>
</svg>
