<?xml version="1.0" encoding="utf-8"?>
<!-- Generator: Adobe Illustrator 19.2.1, SVG Export Plug-In . SVG Version: 6.00 Build 0)  -->
<svg version="1.1" xmlns="http://www.w3.org/2000/svg" xmlns:xlink="http://www.w3.org/1999/xlink" x="0px" y="0px"
	 viewBox="0 0 800 800" style="enable-background:new 0 0 800 800;" xml:space="preserve">
<style type="text/css">
	.st0{fill:#FFFFFF;}
	.st1{fill:#F39E32;}
</style>
<g id="source">
</g>
<g id="Layer_1">
	<g>
		<path class="st0" d="M277.4,341.5L752.4,57c4.7-2.8,10.2,2.3,7.8,7.2l-20.7,41.9c-1.6,3.2-3.6,6.1-6,8.8
			c-23.8,26-163,174.3-374.6,327.7c-3.2,2.3-7.5,2.7-11.1,1l-15.8-7.4c-3.9-1.8-8.5-1.3-11.9,1.5l-47.5,38.7l-74.9,26.3
			c-2.2,0.8-4.3-1.5-3.2-3.6l75.6-149.8C271.8,346,274.3,343.3,277.4,341.5z"/>
		<path class="st0" d="M179.1,691.5l-13.4-7.9c-2.5-1.5-4.4-3.8-5.3-6.5l-5-11.1c-0.7-2.1-1.2-5.1,0.7-6.3
			c8.7-5.7,18.7-33.2,5.3-86.6c-0.4-1.7-0.1-3.6,0.7-5.2c5.4-11.2,27.4-56.2,29.5-56.9l397-130.5c3.6-1.2,6.5,3,4.1,5.9l-20,24.7
			c-1.5,1.9-3.3,3.5-5.3,4.9c-19.7,13.7-125.3,88.5-288.8,158.9c-2.5,1.1-5.4,0.7-7.5-1l-9.4-7.3c-2.3-1.8-5.5-2.1-8.1-0.8
			l-35.1,15.8c-1.3,0.6-0.9,2.6,0.6,2.6l281-10.8c2-0.1,3,2.4,1.5,3.7l-13,11.8c-2.2,2-4.7,3.4-7.5,4.3
			c-23.3,7.3-138,42.2-243.4,54.1c-3.2,0.4-6.5-0.4-9.3-2.1l-11.2-7c-2.5-1.5-5.4-2-8.2-1.5l-34.9,7.1l255.5,35.7
			c2,0.3,2.4,3,0.6,3.9l-13.1,6c-4.5,2.1-9.2,3.3-14.1,3.7c-26.5,2.3-128.3,8.9-219.1-0.4C181.9,692.8,180.5,692.3,179.1,691.5z"/>
		<path class="st0" d="M55.2,644c3.1,44,110,105.3,134.7,99.3c23.5-5.7-24.3-30.5-38.7-71.3c-1.3-3.7-4.7-6.2-8.6-6.5
			c-9.5-0.6-26.6-2.1-35.9-12.2c-1.3-1.4,0-3.6,1.9-3.2c0,0,45.2,19.4,46.3-24.6c1-40.2-18.6-62-18.6-62c-0.5-1.1,0.2-2.3,1.3-2.5
			c3.1-0.6,8.9-1.6,13.2-2.3c3.4-0.6,6.4-2.7,8-5.7c8.9-16,37.9-69.6,59.7-125.7c20.8-53.6,38.3-96,44.5-110.8c1-2.4-1.1-5-3.7-4.4
			l-10.5,2.2c-4.1,0.8-7.9,2.6-11.2,5.3C215.2,337,125.3,411.8,59.8,511c-4.1,6.3-4.6,14.3-1,21l21,39.4L62,558.6
			c-3-2.2-7.2-1.1-8.9,2.2C44.9,577,31.7,622,55.2,644"/>
	</g>
</g>
</svg>
