<?xml version="1.0" encoding="utf-8"?>
<!-- Generator: Adobe Illustrator 19.2.1, SVG Export Plug-In . SVG Version: 6.00 Build 0)  -->
<svg version="1.1" xmlns="http://www.w3.org/2000/svg" xmlns:xlink="http://www.w3.org/1999/xlink" x="0px" y="0px"
	 viewBox="0 0 800 800" style="enable-background:new 0 0 800 800;" xml:space="preserve">
<style type="text/css">
	.st0{fill:#FFFFFF;}
	.st1{fill:#F39E32;}
</style>
<g id="source">
</g>
<g id="Layer_1">
	<path class="st0" d="M211.9,205.3l-3.6,3.9c-4.7,5.1-6.6,12.1-5.2,18.8l5.9,28.8c1.2,5.9-0.5,12.1-4.7,16.5L179.9,299
		c-3.2,3.4-7.6,5.3-12.3,5.3h-27.7v54l28,31v70l99.5,24.4c4.3,1.1,8.5,2.5,12.6,4.2l30.7,13.3c0,0-81.4-136-128.1-168
		s22-17.3,52.7,30.7s123,194.7,147.7,217.3c0,0-43.7-116-49.7-156.7s-24.4-136.5-52.7-129C247,304.4,221.2,250.3,211.9,205.3z"/>
	<path class="st0" d="M588.1,205.3l3.6,3.9c4.7,5.1,6.6,12.1,5.2,18.8l-5.9,28.8c-1.2,5.9,0.5,12.1,4.7,16.5l24.3,25.7
		c3.2,3.4,7.6,5.3,12.3,5.3h27.7v54l-28,31v70l-99.5,24.4c-4.3,1.1-8.5,2.5-12.6,4.2l-30.7,13.3c0,0,81.4-136,128.1-168
		c46.7-32-22-17.3-52.7,30.7s-123,194.7-147.7,217.3c0,0,43.7-116,49.7-156.7s24.4-136.5,52.7-129
		C553,304.4,578.8,250.3,588.1,205.3z"/>
	<path class="st0" d="M100.9,158.3L75.5,209c-3,6-3.9,12.8-2.6,19.4l31.5,157.3l27.5-23L100.9,158.3z"/>
	<polygon class="st0" points="139.9,373.3 113.2,395.9 113.2,513.9 139.9,541.3 159.9,517.3 159.9,393.3 	"/>
	<path class="st0" d="M400,600.3c0,0,43.1-116,58.1-201.1c11.5-65.3,31.7-109.5,40-125.6c2.3-4.4,7.1-7,12.1-6.3l33.8,7.6
		c2,0.3,4.1-0.4,5.5-1.9c19.8-19.9,27.5-55.5,29-70.5c0.5-4.7-0.7-9.3-3.3-13.2C532,124.8,429.1,58.7,405.1,43.8
		c-3.1-1.9-7-1.9-10.1,0c-24,14.9-126.9,81.1-170.2,145.5c-2.6,3.9-3.8,8.6-3.3,13.2c1.6,15,9.3,50.6,29,70.5
		c1.4,1.4,3.5,2.1,5.5,1.9l33.8-7.6c5-0.6,9.8,1.9,12.1,6.3c8.3,16.1,28.5,60.3,40,125.6C356.9,484.3,400,600.3,400,600.3z"/>
	<path class="st0" d="M699.1,158.3l25.4,50.7c3,6,3.9,12.8,2.6,19.4l-31.5,157.3l-27.5-23L699.1,158.3z"/>
	<polygon class="st0" points="660.1,373.3 686.8,395.9 686.8,513.9 660.1,541.3 640.1,517.3 640.1,393.3 	"/>
	<path class="st0" d="M400,757.7h60.8c4.7,0,9.1-2,12.1-5.6l135.2-157.5l16-117.7l-20,3l-6.5,58.1c-1,6.7-4.5,12.8-9.9,17
		l-49.1,37.5l-79.2,125.3L438.5,691c-2.8-3.6-7.1-5.7-11.7-5.7H400h-26.8c-4.6,0-8.9,2.1-11.7,5.7l-20.9,26.9l-79.2-125.3L212.3,555
		c-5.4-4.1-9-10.2-9.9-17l-6.5-58.1l-20-3l16,117.7l135.2,157.5c3,3.5,7.5,5.6,12.1,5.6H400z"/>
</g>
</svg>
