<?xml version="1.0" encoding="utf-8"?>
<!-- Generator: Adobe Illustrator 19.2.1, SVG Export Plug-In . SVG Version: 6.00 Build 0)  -->
<svg version="1.1" xmlns="http://www.w3.org/2000/svg" xmlns:xlink="http://www.w3.org/1999/xlink" x="0px" y="0px"
	 viewBox="0 0 800 800" style="enable-background:new 0 0 800 800;" xml:space="preserve">
<style type="text/css">
	.st0{fill:#FFFFFF;}
	.st1{fill:#F39E32;}
</style>
<g id="source">
</g>
<g id="Layer_1">
	<path class="st0" d="M655.7,361.2c-9.6-26.8-27.4-50.1-34.1-58.3c-1.7-2.1-2.7-4.8-2.7-7.5l0-13.3c0-2.2,0.5-4.4,1.4-6.4l19.8-41.2
		c1.1-2.4,3.3-4.2,5.8-4.9l2.8-0.8c2.7,0,4.7-2.6,3.8-5.2c-9.4-29.2-54.6-72.3-54.6-72.3c-61.6-112.4-171-109.8-193.9-108
		c-2.8,0.2-5.7,0.2-8.5,0c-22.9-1.9-132.3-4.4-193.9,108c0,0-45.1,43-54.6,72.3c-0.8,2.6,1.1,5.2,3.8,5.2l2.8,0.8
		c2.5,0.7,4.6,2.5,5.8,4.9l19.8,41.2c1,2,1.4,4.2,1.4,6.4l0,13.3c0,2.7-0.9,5.4-2.7,7.5c-6.7,8.2-24.4,31.5-34.1,58.3
		c-1.8,5.1,1.9,10.5,7.3,10.5h0.4c2.6,0,5,1.2,6.6,3.2l36.5,46.7c2.5,3.2,6.3,5.1,10.4,5.1l12.7-2c2.5,0,4.9,0.9,6.8,2.4l40,33.1
		c3.6,2.9,6.3,6.8,7.6,11.3l56.2,185.2c0.8,2.7,1.3,5.4,1.3,8.2l0.7,26.3c0.1,4.1,1.9,8,5,10.8l57.8,52.7c3.7,3.3,9.2,3.3,12.9,0
		l21.1-20.3l-1-10.6c0-2.7,2.6-4.6,5.1-3.7l10.2,2.3l22.3-20.4c3.1-2.8,4.8-6.7,5-10.8l0.7-26.3c0.1-2.8,0.5-5.5,1.3-8.2l54.3-178.8
		l-0.9-28.8c0-1.3-0.3-2.5-1-3.5l-5.1-8.3c-0.6-0.9,0.4-2,1.2-1.4l7.1,5.9c1.3,1.1,2.1,2.9,2.2,4.8l0.5,19.1l0.2,0.6
		c1.4-2.3,3.2-4.3,5.3-6l40-33.1c1.9-1.6,4.4-2.4,6.8-2.4l12.7,2c4.1,0,7.9-1.9,10.4-5.1l36.5-46.7c1.6-2,4-3.2,6.6-3.2h0.4
		C653.8,371.7,657.6,366.3,655.7,361.2z M421.3,282l18.4,12.6c0.9,0.6,0.4,1.9-0.6,1.9h-6.4c-2,0-3.9-0.9-5.2-2.5l-7.9-10.2
		C418.8,282.6,420.1,281.2,421.3,282z M344.4,371.7c-1.1,4.3-4.3,7.7-8.6,9l-48.4,15c-3.3,1-6.9,0.7-9.9-1l-45.4-25.1
		c-2.7-1.5-4.7-3.9-5.8-6.8l-16-44c-2.1-5.9,0.3-12.4,5.8-15.4l9.7-5.4c3.8-2.1,8.4-2.1,12.2,0l96.1,52.5c3.9,2.2,8.8,1.9,12.5-0.7
		l6.3-3.8l-4.3,10.5c-0.9,2.3-1.7,4.7-2.3,7.1L344.4,371.7z M447,505.3c-15.1,48.6-22.5,98.8-41.8,116.3c-2.9,2.6-7.4,2.6-10.3,0
		c-19.4-17.5-26.8-67.7-41.8-116.3c-11.8-38.2-3.5-53.2,1.9-58.6c1.5-1.5,4.1-0.7,4.5,1.4C373,521.5,400,566.7,400,566.7
		s27-45.1,40.6-118.6c0.4-2.1,3-2.9,4.5-1.4C450.5,452.1,458.8,467.2,447,505.3z M587.7,320.1l-17.3,41.2c-1,2.8-3,5.1-5.5,6.5
		l-46.5,25c-2.9,1.6-6.3,1.9-9.5,1l-18.8-4.2l2.2,4.9c0.6,1.3,1.3,2.5,2.1,3.7l11.5,16.2c0.8,1.1-0.7,2.5-1.7,1.6l-16.9-14.1
		c-2.1-1.7-3.8-3.8-5.1-6.2l-4.9-9l-9.6-2.2c-4.1-1.3-7.2-4.5-8.2-8.7l-0.9-6.8c-0.6-2.3-1.3-4.6-2.2-6.8l-6.1-10.1l6,3.7
		c3.4,2.3,7.7,2.6,11.4,0.9v-22.3c0-1.7-0.5-3.5-1.5-4.9l-8.1-11.5c-0.9-1.3,0.7-2.8,1.9-1.9l11.4,8.2c2.1,1.5,3.4,4,3.5,6.6
		l0.7,21.2l85.8-51.9c3.6-2,8.1-2,11.7,0l9.3,5.2C587.4,308.2,589.7,314.5,587.7,320.1z"/>
</g>
</svg>
