<?xml version="1.0" encoding="utf-8"?>
<!-- Generator: Adobe Illustrator 19.2.1, SVG Export Plug-In . SVG Version: 6.00 Build 0)  -->
<svg version="1.1" xmlns="http://www.w3.org/2000/svg" xmlns:xlink="http://www.w3.org/1999/xlink" x="0px" y="0px"
	 viewBox="0 0 800 800" style="enable-background:new 0 0 800 800;" xml:space="preserve">
<style type="text/css">
	.st0{fill:#FFFFFF;}
	.st1{fill:#F39E32;}
</style>
<g id="source">
</g>
<g id="Layer_1">
	<path class="st0" d="M400,534.8l92.3-36l78-1.3l-20.7,22.7l-58.7,0.7l-69.3,52l1.3,152.7l28,35.3l134.7-169.3l15.9-1.7
		c7.8-0.7,13.7-7.3,13.6-15.1l2.5-51.8l27.5-147.7c0.8-4.2,1.2-8.4,1.2-12.7v-64.9c0-2.2-2.8-3.2-4.2-1.5l-45.8,56.8l-11.7-194
		c-0.1-1.1-1.6-1.3-2-0.2l-17,52.9l-10,56.7l-8,26.3c-1.2,3.8-4.7,6.4-8.6,6.4l0,0c-3.6,0-6.8,2.3-8,5.7l-9.6,27.7l-54-34.5
		l-33-148.5l-32-104.1c-0.7-2.4-4.1-2.4-4.9,0l-32,104.1l-33,148.5l-54,34.5l-9.6-27.7c-1.2-3.4-4.4-5.7-8-5.7h0
		c-4,0-7.5-2.6-8.6-6.4l-8-26.3l-10-56.7l-17-52.9c-0.3-1.1-1.9-0.9-2,0.2l-11.7,194l-45.8-56.8c-1.4-1.7-4.2-0.8-4.2,1.5v64.9
		c0,4.2,0.4,8.5,1.2,12.7l27.5,147.7l2.5,51.8c-0.1,7.8,5.8,14.4,13.6,15.1l15.9,1.7L349,760.8l28-35.3l1.3-152.7l-69.3-52
		l-58.7-0.7l-20.7-22.7l78,1.3L400,534.8z"/>
</g>
</svg>
