<?xml version="1.0" encoding="utf-8"?>
<!-- Generator: Adobe Illustrator 19.2.1, SVG Export Plug-In . SVG Version: 6.00 Build 0)  -->
<svg version="1.1" xmlns="http://www.w3.org/2000/svg" xmlns:xlink="http://www.w3.org/1999/xlink" x="0px" y="0px"
	 viewBox="0 0 800 800" style="enable-background:new 0 0 800 800;" xml:space="preserve">
<style type="text/css">
	.st0{fill:#FFFFFF;}
	.st1{fill:#F39E32;}
</style>
<g id="source">
</g>
<g id="Layer_1">
	
		<ellipse transform="matrix(0.3377 -0.9413 0.9413 0.3377 -91.4841 404.2711)" class="st0" cx="241.5" cy="267.1" rx="69.4" ry="44.2"/>
	<path class="st0" d="M154.4,597.6c-30.1-59.9-74.2-98.6-98.5-86.4c-24.3,12.2-19.6,70.7,10.4,130.6c30.1,59.9,74.2,98.6,98.5,86.4
		C189.2,716,184.5,657.5,154.4,597.6z M138.5,689.7c-13.8,6.9-40.3-17.7-59-55.1s-22.8-73.3-8.9-80.2c13.8-6.9,40.3,17.7,59,55.1
		C148.3,646.9,152.3,682.8,138.5,689.7z"/>
	
		<ellipse transform="matrix(0.9413 -0.3377 0.3377 0.9413 -57.407 204.2911)" class="st0" cx="558.5" cy="267.1" rx="44.2" ry="69.4"/>
	<path class="st0" d="M744.1,511.2c-24.3-12.2-68.4,26.5-98.5,86.4c-30.1,59.9-34.8,118.4-10.4,130.6c24.3,12.2,68.4-26.5,98.5-86.4
		C763.8,581.9,768.4,523.4,744.1,511.2z M720.5,634.6c-18.8,37.4-45.2,62-59,55.1c-13.8-6.9-9.8-42.9,8.9-80.2
		c18.8-37.4,45.2-62,59-55.1C743.3,561.4,739.3,597.3,720.5,634.6z"/>
	<path class="st0" d="M633.4,590.9c23.7-47.2,57.7-80.9,85.9-88.4l-74.4-35.1c1.7-16.4,1.8-33.4,0.1-50.8
		c-4.7-48.6-16.5-94.4-34.3-134.9c2.6,32-8.5,59.1-29.9,66.8c-28.6,10.3-64.9-17.8-81-62.8c-16.1-44.9-6-89.7,22.7-100
		c28.6-10.3,64.9,17.8,81,62.8c1,2.7,1.8,5.4,2.6,8C586,146.9,501.4,64.6,400,64.6c-101.4,0-186,82.3-205.9,191.8
		c0.8-2.6,1.6-5.3,2.6-8c16.1-44.9,52.4-73,81-62.8c28.6,10.3,38.8,55,22.7,100c-16.1,44.9-52.4,73-81,62.8
		c-21.5-7.7-32.6-34.8-29.9-66.8c-17.8,40.5-29.6,86.4-34.3,134.9c-1.7,17.4-1.6,34.4,0.1,50.8l-74.4,35.1
		c28.2,7.6,62.1,41.2,85.9,88.4c23,45.9,30,91.9,20.5,119.3l88.1-54.6c37.5,22.7,80.6,35.5,124.7,35.5c44.2,0,87.3-12.8,124.7-35.5
		l88.1,54.6C603.4,682.8,610.3,636.8,633.4,590.9z M371.2,91.6h64.7c5.3,0,9.7,4.3,9.7,9.7c0,5.3-4.4,9.7-9.7,9.7h-64.7
		c-5.3,0-9.7-4.4-9.7-9.7C361.6,95.9,365.9,91.6,371.2,91.6z M356.8,132.7L356.8,132.7c1.1-5.2,6.3-8.5,11.5-7.4l71.9,15.7
		c5.2,1.1,8.5,6.3,7.4,11.5l0,0c-1.1,5.2-6.3,8.5-11.5,7.4l-71.9-15.7C359,143.1,355.6,137.9,356.8,132.7z M354.8,178.6
		c0.6-5.3,5.3-9.2,10.6-8.6l75.7,8c5.3,0.6,9.2,5.3,8.6,10.6c-0.6,5.3-5.3,9.2-10.6,8.6l-75.7-8
		C358.1,188.7,354.2,183.9,354.8,178.6z M306.8,598L306.8,598c-4.4,2.9-10.5,1.7-13.4-2.8l-35.6-54c-2.9-4.4-1.7-10.5,2.8-13.4
		c4.4-2.9,10.5-1.7,13.4,2.8l35.6,54C312.5,589,311.3,595,306.8,598z M328.1,589.4L328.1,589.4c-5.2,1-10.3-2.5-11.3-7.7L303,508.3
		c-1-5.2,2.5-10.3,7.7-11.3c5.2-1,10.3,2.5,11.3,7.7l13.8,73.4C336.8,583.4,333.3,588.5,328.1,589.4z M383.7,575.8L383.7,575.8
		c-4.8,2.4-10.6,0.5-13-4.3l-33.5-66.8c-2.4-4.8-0.5-10.6,4.3-13c4.8-2.4,10.6-0.5,13,4.3l33.5,66.8
		C390.4,567.6,388.5,573.4,383.7,575.8z M277.7,375.5c0,0,24.6-101.9,122.3-161.6c97.7,59.7,122.3,161.6,122.3,161.6
		C466.3,257.8,400,234.2,400,234.2S333.7,257.8,277.7,375.5z M407.8,574.4c-4.8-2.2-6.9-8-4.7-12.8l31.4-67.8
		c2.2-4.8,8-6.9,12.8-4.7h0c4.8,2.2,6.9,8,4.7,12.8l-31.4,67.8C418.4,574.5,412.7,576.7,407.8,574.4z M447.4,584.5
		c-4.2-3.2-5.1-9.3-1.9-13.5l45.2-59.5c3.2-4.2,9.3-5.1,13.5-1.9c4.2,3.2,5.1,9.3,1.9,13.5l-45.2,59.5
		C457.7,586.9,451.6,587.7,447.4,584.5z M536.4,547l-34.8,45.9c-3.1,4-8.9,4.8-12.9,1.8l-0.7-0.5c-4-3.1-4.8-8.9-1.8-12.9l34.8-45.9
		c3.1-4,8.9-4.8,12.9-1.8l0.7,0.5C538.7,537.1,539.5,543,536.4,547z"/>
</g>
</svg>
