<?xml version="1.0" encoding="utf-8"?>
<!-- Generator: Adobe Illustrator 19.2.1, SVG Export Plug-In . SVG Version: 6.00 Build 0)  -->
<svg version="1.1" xmlns="http://www.w3.org/2000/svg" xmlns:xlink="http://www.w3.org/1999/xlink" x="0px" y="0px"
	 viewBox="0 0 800 800" style="enable-background:new 0 0 800 800;" xml:space="preserve">
<style type="text/css">
	.st0{fill:#FFFFFF;}
	.st1{fill:#F39E32;}
</style>
<g id="source">
</g>
<g id="Layer_1">
	<g>
		<path class="st0" d="M400,674.4h25.2c7.1,0,14.1,1.5,20.6,4.3l54,23.4c6.9,3,14.9,0.2,18.5-6.4l20.3-37.4c2-3.6-0.7-8-4.8-8h-31.1
			c-7.4,0-14.2-3.7-18.3-9.8l-32.3-48.5c-2.6-3.9-8.1-4.1-11.1-0.5l-5.2,6.4c-4.4,5.3-10.9,8.5-17.8,8.5H400h-18.1
			c-6.9,0-13.4-3.1-17.8-8.5l-5.2-6.4c-2.9-3.6-8.5-3.3-11.1,0.5l-32.3,48.5c-4.1,6.1-11,9.8-18.3,9.8h-31.1c-4.1,0-6.7,4.4-4.8,8
			l20.3,37.4c3.6,6.6,11.6,9.3,18.5,6.4l54-23.4c6.5-2.8,13.5-4.3,20.6-4.3H400z"/>
		<path class="st0" d="M400,562.4h41.1c6.9,0,13.4,3.2,17.6,8.6l43.2,54.9c3.2,4.1,8.1,6.5,13.4,6.5h22.2c7,0,13.5-4.1,16.5-10.4
			l29.1-61.2c3.1-6.6,3.3-14.3,0.5-21l-7.6-22.2c-3.2-7.7-2.7-16.4,1.1-23.7l69-134.6c1.7-3.2,6.6-1.8,6.3,1.8l-2.5,38
			c-0.3,4.8-1.9,9.3-4.6,13.3l-50.2,72c-2.7,3.9-4.1,8.5-4,13.3l0.6,30c0.1,5.1,6.6,7.3,9.7,3.1l81.1-108.4
			c2.9-3.9,5.1-8.4,6.2-13.2l14.3-58c1.2-5.1,4-9.7,7.8-13.2l34.6-31.7c8.3-7.6,13.3-18.3,13.7-29.6l-0.1-81.7
			c0.6-13.4-5.1-26.3-15.3-34.9c-16.2-13.7-30.6-28.3-38.8-41.8c-12.5-20.5-63-34-84-5c-13.3,18.4-27.6,29.1-36.3,34.5
			c-4.8,3-10.5,4.1-16.1,3.3l-4.7-1.7c-3.8-1.4-8-1.2-11.6,0.5l-67.9,31.2c-11.2,5.2-12,20.8-1.4,27.1l27.5,18.6
			c6,4.1,13.6,5.3,20.6,3.3l27.9-8c8.3-2.4,15.2-8.3,19-16.1l9.8-20.7c2.2-4.5,5.6-8.3,9.9-11l42.4-26c69.6-33.2,72.1,45.9,71,80
			c-0.3,9.3-2,17.2-8.4,24L570.8,394c-3.7,4-8.9,6.3-14.4,6.3h-10.3c-5.5,0-10.6-2.8-13.6-7.4l-3-4.6c-6.3-9.8-14.7-18.1-24.5-24.4
			l-38.1-26.8c-5.8-3.7-12.6-5.7-19.5-5.7H400h-47.4c-6.9,0-13.7,2-19.5,5.7l-38.1,26.8c-9.8,6.3-18.2,14.6-24.5,24.4l-3,4.6
			c-3,4.6-8.1,7.4-13.6,7.4h-10.3c-5.5,0-10.7-2.3-14.4-6.3L97.4,252.4c-6.4-6.8-8.1-14.7-8.4-24c-1.1-34.1,1.4-113.2,71-80l42.4,26
			c4.3,2.6,7.7,6.4,9.9,11l9.8,20.7c3.7,7.8,10.6,13.7,19,16.1l27.9,8c7,2,14.5,0.8,20.6-3.3l27.5-18.6c10.6-6.3,9.8-21.9-1.4-27.1
			L247.7,150c-3.7-1.7-7.8-1.9-11.6-0.5l-4.7,1.7c-5.6,0.9-11.3-0.3-16.1-3.3c-8.7-5.4-23-16.2-36.3-34.5c-21-29-71.5-15.5-84,5
			c-8.2,13.5-22.6,28.1-38.8,41.8c-10.2,8.6-15.9,21.5-15.3,34.9l-0.1,81.7c0.4,11.3,5.4,21.9,13.7,29.6L89.1,338
			c3.8,3.5,6.6,8.1,7.8,13.2l14.3,58c1.2,4.8,3.3,9.2,6.2,13.2l81.1,108.4c3.1,4.1,9.6,2,9.7-3.1l0.6-30c0.1-4.7-1.3-9.4-4-13.3
			l-50.2-72c-2.7-3.9-4.3-8.5-4.6-13.3l-2.5-38c-0.2-3.6,4.6-5,6.3-1.8l69,134.6c3.9,7.3,4.3,16,1.1,23.7l-7.6,22.2
			c-2.8,6.8-2.6,14.4,0.5,21l29.1,61.2c3,6.4,9.4,10.4,16.5,10.4h22.2c5.2,0,10.1-2.4,13.4-6.5l43.2-54.9c4.3-5.4,10.8-8.6,17.6-8.6
			H400z"/>
		<path class="st0" d="M400,310.6c153,0,266-53.2,274-91c0.9-4.2,1.2-15.5,0.6-25.8c-0.4-6.5-8.4-9.1-12.5-4.1
			c-37.3,45.2-140.6,77.7-262.1,77.7s-224.7-32.5-262.1-77.7c-4.1-5-12.2-2.3-12.5,4.1c-0.6,10.3-0.3,21.5,0.6,25.8
			C134,257.4,247,310.6,400,310.6z"/>
	</g>
</g>
</svg>
