<?xml version="1.0" encoding="utf-8"?>
<!-- Generator: Adobe Illustrator 19.2.1, SVG Export Plug-In . SVG Version: 6.00 Build 0)  -->
<svg version="1.1" xmlns="http://www.w3.org/2000/svg" xmlns:xlink="http://www.w3.org/1999/xlink" x="0px" y="0px"
	 viewBox="0 0 800 800" style="enable-background:new 0 0 800 800;" xml:space="preserve">
<style type="text/css">
	.st0{fill:#FFFFFF;}
	.st1{fill:#F39E32;}
</style>
<g id="source">
</g>
<g id="Layer_1">
	<g>
		<g>
			<polyline class="st0" points="398.5,146.4 398.5,222.1 358.5,286.8 398.5,337.1 398.5,393.4 327.8,286.8 369.1,217.4 
				369.1,174.1 376.5,171.4 376.5,155.4 398.5,146.4 			"/>
			<g>
				<polygon class="st0" points="323.6,289.5 321.9,286.9 323.5,284.2 346.6,245.5 332.5,231.4 299.1,289.4 344.5,355.4 
					370.7,360.6 				"/>
				<polygon class="st0" points="366.1,216.1 366.1,172.1 373.4,169.6 373.5,162.8 363.1,162.8 335.1,219.4 352,236.4 				"/>
			</g>
			<polyline class="st0" points="401.5,146.4 423.5,155.4 423.5,171.4 430.9,174.1 430.9,217.4 472.2,286.8 401.5,393.4 
				401.5,337.1 441.5,286.8 401.5,222.1 401.5,146.4 			"/>
			<g>
				<polygon class="st0" points="476.4,289.5 478.1,286.9 476.5,284.2 453.4,245.5 467.5,231.4 500.9,289.4 455.5,355.4 
					429.3,360.6 				"/>
				<polygon class="st0" points="433.9,216.1 433.9,172.1 426.6,169.6 426.5,162.8 436.9,162.8 464.9,219.4 448,236.4 				"/>
			</g>
		</g>
		<g>
			<path class="st0" d="M117.6,248L85.3,120.1l-30-26.7l-18,46.7l19,93.7C70.8,233.7,93.5,235.9,117.6,248z"/>
			<path class="st0" d="M238.3,673.6l-83.7-117.8l-35.6-165c-1.5-6.4-0.2-13.2,3.7-18.6l14.6-24.2c2.5-4.2,3.3-9.3,2.1-14L122,265.1
				l0,0l-46.3-11.3l-8.3,34.6L123,563c1,5.2,3.1,10.1,6.1,14.4l80.4,118.7c2,3,5.1,5.1,8.6,6l17.1,4.3c2.8,0.7,5.4-1.4,5.4-4.3
				v-21.5C240.6,678.2,239.8,675.7,238.3,673.6z"/>
		</g>
		<path class="st0" d="M400,545.8l62.5,7.9c15.4,2.4,29.8,10.8,42.2,20.3c23.2,17.6,46.3,28.9,59.4,33.9c5.1,1.9,10.8,0.8,14.7-3
			c37.6-36.9,49.6-80,49.6-80l21.2-130.4c0.5-3.3,0.6-6.6,0.1-9.9c-4.4-30.4-16.8-42.2-23.7-46.5c-2.4-1.5-5.6-1.1-7.5,1
			c-20.3,22.3-43.8,38.4-60.3,49.8c-12.4,8.6-26.6,14.4-41.5,16.9L400,427.4l-116.7-21.7c-14.9-2.5-29.1-8.3-41.5-16.9
			c-16.5-11.4-40-27.5-60.3-49.8c-1.9-2.1-5.1-2.5-7.5-1c-6.9,4.3-19.3,16-23.7,46.5c-0.5,3.3-0.4,6.7,0.1,9.9l21.2,130.4
			c0,0,12,43.2,49.6,80c3.9,3.8,9.6,4.9,14.7,3c13-5,36.2-16.3,59.4-33.9c12.4-9.4,26.8-17.8,42.2-20.3L400,545.8z"/>
		<g>
			<path class="st0" d="M682.4,248l32.4-127.9l30-26.7l18,46.7l-19,93.7C729.2,233.7,706.5,235.9,682.4,248z"/>
			<path class="st0" d="M561.7,673.6l83.7-117.8l35.6-165c1.5-6.4,0.2-13.2-3.7-18.6L662.7,348c-2.5-4.2-3.3-9.3-2.1-14l17.4-68.9
				l0,0l46.3-11.3l8.3,34.6L677,563c-1,5.2-3.1,10.1-6.1,14.4l-80.4,118.7c-2,3-5.1,5.1-8.6,6l-17.1,4.3c-2.8,0.7-5.4-1.4-5.4-4.3
				v-21.5C559.4,678.2,560.2,675.7,561.7,673.6z"/>
		</g>
	</g>
</g>
</svg>
