<?xml version="1.0" encoding="utf-8"?>
<!-- Generator: Adobe Illustrator 19.2.1, SVG Export Plug-In . SVG Version: 6.00 Build 0)  -->
<svg version="1.1" xmlns="http://www.w3.org/2000/svg" xmlns:xlink="http://www.w3.org/1999/xlink" x="0px" y="0px"
	 viewBox="0 0 800 800" style="enable-background:new 0 0 800 800;" xml:space="preserve">
<style type="text/css">
	.st0{fill:#FFFFFF;}
	.st1{fill:#F39E32;}
</style>
<g id="source">
</g>
<g id="Layer_1">
	<g>
		<path class="st0" d="M415.1,257.4c146.1,1.1,216.9,110.1,235.3,136.7c2.2,3.2,6,5.9,12.2,3.6l10.4-4.2c5.3-3.1,6.3-10.1,4.8-16.8
			l-30.8-204.8c-77.3-106.6-232-98.5-232-98.5s-153-1.5-229.5,91.5l-45.5,195.8c-1.6,6.7,0.3,13.7,4.9,18.8l6.5,7.2
			c2.6,2.9,7.2,2.6,9.4-0.6C179.6,359.5,261.5,257.4,415.1,257.4z"/>
		<path class="st0" d="M237.3,274.1l88,88.7c0,0,26.8,27.9,31.3,44.2c0.8,2.7,3,4.7,5.7,5.2c3.9,0.8,9.9,1.3,17.3-0.2
			c2.5-0.5,4.7,1.8,4,4.3c-1.6,5.9-4.6,12-15,12.8c-11,0.8-18.7-5.2-21.3-8.3c-1.2-1.5-2.6-2.6-4.3-3.5c-10-4.9-44.4-21.3-83.1-32.5
			c-29.6-8.6-50.1-17.7-61-23.1c-4.1-2-4.3-7.8-0.5-10.1l29.3-18c3.3-2,5.1-5.8,4.5-9.7l-7.1-49.7H237.3z"/>
		<path class="st0" d="M445.5,413.3c6.8-3.9,53.2-22.4,91.3-35.6c29.1-10.1,49.2-20.2,59.7-26.2c4-2.2,3.9-8-0.1-10.2l-30.2-16.5
			c-3.4-1.9-5.4-5.6-5-9.4l4.6-50l-12,0.6l-83.4,93c0,0-25.3,21.2-29.1,37.8c0,0-2,8.3-11.5,7.6s-8-5.3-12.2-3.5
			C413.4,402.7,419,428.7,445.5,413.3z"/>
		<path class="st0" d="M349.9,432l-101.2-45.6c-4.1-1.9-8.9-1.1-12.3,1.9l-45.3,38.4c-2.4,2.2-3.8,5.3-3.8,8.5v11.3
			c0,2.3,0.7,4.5,2,6.4l47.3,66.8c2.1,3.1,5.7,5,9.4,5h44.3c2.4,0,4.7-0.7,6.6-2.1l54.9-41.5c3-2.1,4.8-5.6,4.8-9.3v-29.4
			C356.6,438,354,433.9,349.9,432z M229.6,459.1c-11.2,0-20.2-9.1-20.2-20.2s9.1-20.2,20.2-20.2c11.2,0,20.2,9.1,20.2,20.2
			S240.8,459.1,229.6,459.1z M304.7,490.4c-6.1,0-11-4.9-11-11c0-6.1,4.9-11,11-11c6.1,0,11,4.9,11,11
			C315.7,485.4,310.8,490.4,304.7,490.4z"/>
		<path class="st0" d="M471.6,564.4c0,0,31-33,72-33c43,0,104.7,84.4,129,89c24,4.5,79-48,85.7-39c12.8,17.2-111.6,150.1-154.7,145
			c-67.3-8-169.4-104.6-157-133C455.8,572.3,471.6,564.4,471.6,564.4z"/>
		<path class="st0" d="M304.7,553.4c0,0-27-31.3-46.1-31c-19.1,0.3-81.5,44.4-107,69c-22.5,21.6-22.5,25-51,12
			c-29.3-13.4-52-49.7-59.3-43.7c-8.2,6.7,73.8,149.2,125.7,161.7c60.9,14.7,178.6-97,171.6-124S304.7,553.4,304.7,553.4z"/>
		<path class="st0" d="M344.4,515.7l-11.8-2.8c-2-0.5-4,0.4-5,2.2l-15.5,28.4c-1.4,2.5-1.3,5.5,0.1,8c7.7,13.1,33.9,53.5,65.7,60
			c32.5,6.6,46.2-6.1,60.8-22.1c14.7-16,47.8-32.6,39.2-45.2c-8.1-11.8-18.7-30.2-32.8-23.5c-1.2,0.6-2.4-0.6-1.9-1.9
			c1.6-3.8,4.8-9.6,10.8-12.6c9.3-4.7,17.7-7,27.3,8c11.5,17.8,28.7,25.8,23.3,43.3c-5.3,17.4-68.5,69.7-82.7,71.6
			c-18.4,2.6-55.3,4.2-63.3,0c-8-4.2-42.9-34.2-42.9-34.2l-31.7-48l36.3-44.1c3.3-5,6.5-4.3,12.2-2.4c6.6,2.2,13.9,4,13.6,14.2
			C346,515.3,345.2,515.9,344.4,515.7z"/>
	</g>
</g>
</svg>
