<?xml version="1.0" encoding="utf-8"?>
<!-- Generator: Adobe Illustrator 19.2.1, SVG Export Plug-In . SVG Version: 6.00 Build 0)  -->
<svg version="1.1" xmlns="http://www.w3.org/2000/svg" xmlns:xlink="http://www.w3.org/1999/xlink" x="0px" y="0px"
	 viewBox="0 0 800 800" style="enable-background:new 0 0 800 800;" xml:space="preserve">
<style type="text/css">
	.st0{fill:#FFFFFF;}
	.st1{fill:#F39E32;}
</style>
<g id="source">
</g>
<g id="Layer_1">
	<path class="st0" d="M653.5,568.3c-6.7-10-16.6-15.3-28.6-15.3c-20.9,0-43.8,22.9-58.5,37.3c-21.3,20.9-44.4,34.5-75,35.8
		c-31.7-1.3-55.6-15-77.7-35.8c-15.2-14.4-38.9-30.3-60.5-30.3c-12.5,0-22.7,5.3-29.6,15.3c-14.1,20.5-12.5,59.5,4.9,115.9
		c9.1,29.5,27.2,68.8,62.3,68.8c18.7,0,38.1-11.6,55.8-22.8c16.2-10.2,29.9-22.8,44.8-23.3c14.4,0.5,27.6,13.1,43.3,23.3
		c17.2,11.2,33.9,22.8,51.9,22.8c33.9,0,52.4-39.2,61.2-68.8C664.5,634.7,667.1,588.7,653.5,568.3z M632.5,682.9
		c-12.3,51.1-38.2,49.6-43.3,49.6c-11.8,0-31.7-11-47.4-20.7c-19.5-12.1-33.7-28.3-50.4-28.3l0,0l0,0l0,0l0,0
		c-17.3,0-32.1,16.2-52.3,28.3c-16.3,9.8-38.8,20.7-51,20.7c-5.3,0-26.4,0.5-42.7-49.6c-21.7-66.8-11.3-83.2-2.6-88.1
		c20.6-11.6,31.5,0.9,49.9,16c23.5,19.3,57.7,49.2,98.7,47.2c39.6,2,71.8-27.9,94.4-47.2c17.8-15.2,36.4-32.9,51.2-15
		C646.3,607.1,645.7,628.1,632.5,682.9z"/>
	<path class="st0" d="M656,246C598.5,116.6,457,98.4,341,91.4S156,40.8,156,40.8c66,87.4,199,166.6,199,166.6
		c-38-14.4-108.7-63.7-108.7-63.7c59.3,88.7,101.3,111.1,101.3,111.1c-93.3-36-96-24-172-31.3s-124-40.7-124-40.7s72,95.3,102,120
		c30,24.7,109.8,55.2,109.8,55.2c-116,35-200.5-7.5-200.5-7.5c13,40,67,91,119,112s83,45,83,45l1,28c-41,30-73,98-73,98
		c38-64,79-80,79-80c-64,44-90,114-90,114c115.1-16.3,134-91.8,288-97c149-5,195-63,195-63c10,127.6-17.5,212-17.5,212
		c13-13.5,24-75,24-75c-2,46-8,58.5-8,58.5c11.5-12,18.6-42.9,18.6-42.9l64.5-241.7c2.1-8.1,0.6-16.8-4.2-23.7l-6.9-9.8
		c-7.7-10.9-16.2-22.3-19.8-35.1C683.8,237.1,653,201,653,201S658.1,223.3,656,246z"/>
	<path class="st0" d="M285.5,350.9c-67.5,32-159.5,9.5-159.5,9.5c99.5,4,124.5-17,124.5-17L285.5,350.9z"/>
	<path class="st0" d="M283.7,608.6c0,0-4.2,62.6,14.4,112c0,0-2.9-50.1,0.5-72.5l8.1,35.7l3.8-88.9L283.7,608.6z"/>
</g>
</svg>
