<?xml version="1.0" encoding="utf-8"?>
<!-- Generator: Adobe Illustrator 19.2.1, SVG Export Plug-In . SVG Version: 6.00 Build 0)  -->
<svg version="1.1" xmlns="http://www.w3.org/2000/svg" xmlns:xlink="http://www.w3.org/1999/xlink" x="0px" y="0px"
	 viewBox="0 0 800 800" style="enable-background:new 0 0 800 800;" xml:space="preserve">
<style type="text/css">
	.st0{fill:#FFFFFF;}
	.st1{fill:#F39E32;}
</style>
<g id="source">
</g>
<g id="Layer_1">
	<path class="st0" d="M561.3,166.6c-47.2-51.9-89.2-77.4-118.5-89.9c-27.3-11.7-58.2-11.7-85.5,0c-29.3,12.5-71.4,38-118.5,89.9
		c-90,99-114.9,140.1-115,167.5c-0.1,17.8,26.9,116.6,59.9,120.6c20.3,2.5,33.5,5.4,40.5,5.8c4.2,0.2,8.3,1.9,11.4,4.9l87.1,78.4
		c0,0,31,34,77.3,34s77.3-34,77.3-34l87.1-78.4c3.1-2.9,7.1-4.6,11.4-4.9c7.1-0.4,20.2-3.3,40.5-5.8c33.1-4,60-102.8,59.9-120.6
		C676.2,306.7,651.3,265.6,561.3,166.6z M247.7,375.7c-15.5,0-28-12.5-28-28s12.5-28,28-28c15.5,0,28,12.5,28,28
		S263.1,375.7,247.7,375.7z M400,516.1c-37.8,0-68.4-30.6-68.4-68.4s30.6-68.4,68.4-68.4s68.4,30.6,68.4,68.4S437.8,516.1,400,516.1
		z M552.3,375.7c-15.5,0-28-12.5-28-28s12.5-28,28-28c15.5,0,28,12.5,28,28S567.8,375.7,552.3,375.7z"/>
	<path class="st0" d="M760.7,471.9c-9.4-33-30.5-58.2-43.9-71.6c-6.4-6.4-16.7-6.5-23.2-0.3l-55,52.1c-6.4,6.1-14.5,10.3-23.1,12
		l-37.4,6.1c-2.3,0.4-4.5,1.4-6.3,2.8c-87,70.3-130,110.7-134.9,125.8c-1.8,5.6-9.2,7.3-15.1,7.3H400h-21.6
		c-5.9,0-13.4-1.7-15.1-7.3c-5.1-16.6-47.9-55.5-134.9-125.8c-1.8-1.5-4-2.4-6.3-2.8l-37.4-6.1c-8.7-1.8-16.7-5.9-23.1-12l-55-52.1
		c-6.5-6.2-16.8-6.1-23.2,0.3c-13.4,13.4-34.5,38.6-43.9,71.6c-3.5,12.2-3.6,25.2-0.4,37.5c8,30.8,29.3,100.1,71,155.4
		c0,0,55.2,67.3,103.6,67.3c61.1,0,109.8-98,186.4-98s125.3,98,186.4,98c48.4,0,103.6-67.3,103.6-67.3
		c41.7-55.3,63.1-124.6,71-155.4C764.2,497.1,764.1,484.1,760.7,471.9z M103.5,526.4c-10.4,0-18.8-11.7-18.8-26.1
		s8.4-26.1,18.8-26.1s26.2,13.5,26.2,27.9S113.9,526.4,103.5,526.4z M250.2,657.2c-31.5,0-57-25.5-57-57c0-31.5,25.5-57,57-57
		s57,25.5,57,57C307.2,631.7,281.6,657.2,250.2,657.2z M549.8,657.2c-31.5,0-57-25.5-57-57c0-31.5,25.5-57,57-57s57,25.5,57,57
		C606.8,631.7,581.3,657.2,549.8,657.2z M696.5,526.4c-10.4,0-26.2-9.9-26.2-24.3s15.8-27.9,26.2-27.9s18.8,11.7,18.8,26.1
		S706.9,526.4,696.5,526.4z"/>
</g>
</svg>
