<?xml version="1.0" encoding="utf-8"?>
<!-- Generator: Adobe Illustrator 19.2.1, SVG Export Plug-In . SVG Version: 6.00 Build 0)  -->
<svg version="1.1" xmlns="http://www.w3.org/2000/svg" xmlns:xlink="http://www.w3.org/1999/xlink" x="0px" y="0px"
	 viewBox="0 0 800 800" style="enable-background:new 0 0 800 800;" xml:space="preserve">
<style type="text/css">
	.st0{fill:#FFFFFF;}
	.st1{fill:#F39E32;}
</style>
<g id="source">
</g>
<g id="Layer_1">
	<path class="st0" d="M150.4,281.2c0.6,10.5,10.1,20.8,21.1,22.9c20.2,3.8,63.5,9,141.4,2.9c8.5-0.7,17.7-4.8,21.2-12.1
		c6.8-13.9,15.5-37.3,5.6-62.8c-3.1-8.1-15.7-14.1-24.6-16.3c-21.1-5.1-71-9.7-144.2-11.7c-9.6-0.3-17.9,6-20.5,14.6
		C150.4,218.7,147.8,233.3,150.4,281.2z"/>
	<path class="st0" d="M671.6,281.2c-0.6,10.5-10.1,20.8-21.1,22.9c-20.2,3.8-63.5,9-141.4,2.9c-8.5-0.7-19.7-4.8-23.2-12.1
		c-6.8-13.9-15.5-37.3-5.6-62.8c3.1-8.1,17.7-14.1,26.6-16.3c21.1-5.1,71-9.7,144.2-11.7c9.6-0.3,17.9,6,20.5,14.6
		C671.6,218.7,674.2,233.3,671.6,281.2z"/>
	<path class="st0" d="M741.9,134.5c-27.5-50.4-54.2-78.1-115.8-71.3c-57.1,6.4-115.3,41.9-140.8,67.6C447,169.1,411,167.7,411,167.7
		s-36,1.4-74.3-36.9c-25.6-25.6-83.8-61.2-140.8-67.6c-61.5-6.9-88.3,20.9-115.8,71.3C50.5,188.7,33.4,271.6,87,356.6
		c47,74.6,87.5,138,67.8,160.3c-23.2,26.2-39.7,39.7-6.5,140.9c30,91.3,50.1,96.8,82.8,54.9c20.2-25.9,177.1-20.7,179.9-20.6
		c2.8-0.1,159.7-5.3,179.9,20.6c32.7,41.9,52.8,36.4,82.8-54.9c33.2-101.2,16.7-114.7-6.5-140.9c-19.7-22.3,20.8-85.7,67.8-160.3
		C788.6,271.6,771.5,188.7,741.9,134.5z M546.3,665.8c-31.2-7.3-128-11.3-128-11.3c-168,0-182.7,24.7-202.7,30s-12-22.7,4-32
		s14.7,7.3,14.7,7.3s24-5,63.6-17.7s120.4-8,120.4-8s47.1,2.8,92,3.7c44.7,0.9,76,6.9,100.3,38C632.1,703.3,579.3,673.5,546.3,665.8
		z M314.5,407.6C258,370.1,291,347.1,291,347.1C287.5,378.6,314.5,407.6,314.5,407.6z M341.2,388.1c0,0-26.1-17.8-9.2-41.5
		c13.7-19.2,20-1.5,48.1,35.5s16.4,49.5,16.4,49.5c-1-13-39.8-52.2-55.3-61.5C330.6,363.8,341.2,388.1,341.2,388.1z M480.8,370.1
		c-15.5,9.3-54.3,48.5-55.3,61.5c0,0-11.8-12.5,16.4-49.5s34.5-54.7,48.1-35.5c16.9,23.7-9.2,41.5-9.2,41.5S491.4,363.8,480.8,370.1
		z M531,347.1c0,0,33,23-23.5,60.5C507.5,407.6,534.5,378.6,531,347.1z M690.5,287.8c-0.7,14-12.5,27.7-26.2,30.4
		c-25.1,5.1-71.3,11.9-167.7,3.9c-10.6-0.9-21.9-6.4-26.3-16.1c-2-4.3-4.1-9.4-6-15c-0.1-0.2-0.2-0.5-0.2-0.7
		c-1.6-4.4-12.1-27.3-53.1-27.3s-51.5,22.9-53.1,27.3c-0.1,0.2-0.2,0.5-0.2,0.7c-1.9,5.6-4,10.6-6,15c-4.4,9.7-15.7,15.2-26.3,16.1
		c-96.5,8-142.6,1.2-167.7-3.9c-13.7-2.8-25.5-16.5-26.2-30.4c-3.2-63.6,0-87.1,0-87.1c3.2-11.4,13.6-19.7,25.5-19.4
		c90.7,2.7,152.5,12.7,178.7,19.6c7.6,2,14.2,7,19.5,12.8c5.3,5.7,8.2,12.4,12.4,18.8c6,9.1,17.6,3.1,26,1.2
		c5.7-1.3,11.7-2.3,17.5-2.2c26.7,0.3,37,14,44.7-1c6.2-12.2,16.9-25.9,30.7-29.5c26.1-6.8,88-16.8,178.7-19.6
		c11.9-0.4,22.2,8,25.5,19.4C690.5,200.8,693.7,224.2,690.5,287.8z"/>
</g>
</svg>
