<?xml version="1.0" encoding="utf-8"?>
<!-- Generator: Adobe Illustrator 19.2.1, SVG Export Plug-In . SVG Version: 6.00 Build 0)  -->
<svg version="1.1" xmlns="http://www.w3.org/2000/svg" xmlns:xlink="http://www.w3.org/1999/xlink" x="0px" y="0px"
	 viewBox="0 0 800 800" style="enable-background:new 0 0 800 800;" xml:space="preserve">
<style type="text/css">
	.st0{fill:#FFFFFF;}
	.st1{fill:#F39E32;}
</style>
<g id="source">
</g>
<g id="Layer_1">
	<g>
		<path class="st0" d="M516,420.9c-12.7,51-61.3,63-61.3,63c6.3-23.6,2-49.5,2-49.5c-29.6,45-102.3,60-102.3,60
			c29.3-29.4,33-63.5,33-63.5c-35.7,55.5-116.8,79.5-116.8,79.5c-81-36.1-112.2-105.8-112.2-105.8c-25.3,28.7-1.6,73.8-1.6,73.8
			c-59.8-32.1-100.7-113-100.7-113S39,189,208.9,132.4c0,0-52.9,51.5-50.1,114.5c0,0,55.7-85.1,191.1-87.5
			C484,157,514,119.9,514,119.9s-10.6,54.5-62.7,90.5c0,0,161.3,38,307.7-136c0,0-3.4,145.5-131.5,222c0,0,62.7-1,120.4-49
			c0,0-34.9,141.6-170.9,131.5c0,0,40.7,49.4,42,90.1s-9,98-9,98s-15.7-70.3-35.7-90.3S516,420.9,516,420.9z"/>
		<path class="st0" d="M489,485c0,0,32.4,34,34.2,95c2,70.5-7.2,91-7.2,91s31-21,39-78s6.9-95.2-1-105c-10.5-13.1-37-33-37-33
			S510,469,489,485z"/>
		<path class="st0" d="M45.5,384.3c0,0,31.5,58.7,65.5,82c0,0-3,23.5-23.8,60.9c-18,32.4,8.5,94.4-12.9,128.4c0,0-15.1-58.8-23.3-84
			c-12.3-37.6,1-68.2-7.5-111.3C36.9,427,45.5,384.3,45.5,384.3z"/>
		<path class="st0" d="M340.7,682.3c29.8,4.4,55.8-1.8,93.7-32c26.6-21.2,47.7-20.8,68.8-11c2.1,1,4.1-1.5,2.8-3.5l-5.5-8.4
			c-4.6-7-12-13.6-20.3-14.5c-15.3-1.8-31.3-0.2-46,4.3c-23.1,7.1-49.5,33-75.2,25.8c-17.7-5-36.5-10.5-40,10.5
			S326.8,680.2,340.7,682.3z"/>
		<path class="st0" d="M225.8,683.3c-28.1,0.6-51.4-8.2-82.8-40.4c-22.1-22.6-41.6-24.8-62.3-18.1c-2,0.7-3.6-1.9-2.2-3.5l6.1-7.1
			c5-5.9,12.7-11.2,20.4-11.1c14.3,0.2,28.9,3.4,42,9.3c20.5,9.2,41.9,36.2,66.5,32.5c17-2.6,34.9-5.5,35.7,14.3
			S238.8,683,225.8,683.3z"/>
		<path class="st0" d="M220.3,492.3L174.8,534c-1.2,1.1-2.6,1.8-4.2,2.1l-12,2.3c-1.9,0.4-3.8,0-5.4-1l-47.5-29.1
			c0,0,17.2,37.7,32.3,60.4c0.7,1.1,1.2,2.3,1.3,3.5l0.9,6.4c0.2,1.1,0.1,2.3-0.1,3.4l-29,143.7c0,0,36.5-81.2,58.8-110.3
			c1.5-2,3.7-3.4,6.1-4.1l5.8-1.6c1.7-0.5,3.5-0.4,5.2,0.2L255,633l-51.2-54.4c-1.4-1.4-2.2-3.3-2.3-5.3l-0.9-12.7
			c-0.2-2.3,0.1-4.7,0.8-6.9L220.3,492.3z"/>
	</g>
</g>
</svg>
