<?xml version="1.0" encoding="utf-8"?>
<!-- Generator: Adobe Illustrator 19.2.1, SVG Export Plug-In . SVG Version: 6.00 Build 0)  -->
<svg version="1.1" xmlns="http://www.w3.org/2000/svg" xmlns:xlink="http://www.w3.org/1999/xlink" x="0px" y="0px"
	 viewBox="0 0 800 800" style="enable-background:new 0 0 800 800;" xml:space="preserve">
<style type="text/css">
	.st0{fill:#FFFFFF;}
	.st1{fill:#F39E32;}
</style>
<g id="source">
</g>
<g id="Layer_1">
	<path class="st0" d="M403.4,40.4h-6.8c-162.3,0-278.8,130.9-278.8,334.4c0,49,8.3,108.7,20,151.9l23-9l70,112l7,78l57.1,52
		l29.8-160.3c0,0,4-24,20-24H400h55.4c16,0,20,24,20,24l29.8,160.3l57.1-52l7-78l70-112l23,9c11.8-43.2,20-102.8,20-151.9
		C682.2,171.3,565.7,40.4,403.4,40.4z M312.2,141.2c12.2,0,22.2,9.9,22.2,22.2c0,12.2-9.9,22.2-22.2,22.2
		c-12.2,0-22.2-9.9-22.2-22.2C290,151.1,299.9,141.2,312.2,141.2z M312.2,213.6c12.2,0,22.2,9.9,22.2,22.2
		c0,12.2-9.9,22.2-22.2,22.2c-12.2,0-22.2-9.9-22.2-22.2C290,223.6,299.9,213.6,312.2,213.6z M312.2,286c12.2,0,22.2,9.9,22.2,22.2
		c0,12.2-9.9,22.2-22.2,22.2c-12.2,0-22.2-9.9-22.2-22.2C290,296,299.9,286,312.2,286z M335.6,423.9l-56.2,39.8
		c-9,6.4-21.6,4.3-28-4.8c-6.4-9-4.3-21.6,4.8-28l56.2-39.9c9-6.4,21.6-4.3,28,4.8C346.8,405,344.6,417.5,335.6,423.9z M402.6,330.4
		c-12.2,0-22.2-9.9-22.2-22.2c0-12.2,9.9-22.2,22.2-22.2c12.2,0,22.2,9.9,22.2,22.2C424.8,320.5,414.9,330.4,402.6,330.4z
		 M402.6,258c-12.2,0-22.2-9.9-22.2-22.2c0-12.2,9.9-22.2,22.2-22.2c12.2,0,22.2,9.9,22.2,22.2C424.8,248.1,414.9,258,402.6,258z
		 M402.6,185.6c-12.2,0-22.2-9.9-22.2-22.2c0-12.2,9.9-22.2,22.2-22.2c12.2,0,22.2,9.9,22.2,22.2
		C424.8,175.6,414.9,185.6,402.6,185.6z M493,141.2c12.2,0,22.2,9.9,22.2,22.2c0,12.2-9.9,22.2-22.2,22.2
		c-12.2,0-22.2-9.9-22.2-22.2C470.9,151.1,480.8,141.2,493,141.2z M493,213.6c12.2,0,22.2,9.9,22.2,22.2c0,12.2-9.9,22.2-22.2,22.2
		c-12.2,0-22.2-9.9-22.2-22.2C470.9,223.6,480.8,213.6,493,213.6z M493,286c12.2,0,22.2,9.9,22.2,22.2c0,12.2-9.9,22.2-22.2,22.2
		c-12.2,0-22.2-9.9-22.2-22.2C470.9,296,480.8,286,493,286z M548.6,459c-6.4,9-18.9,11.2-28,4.8l-56.2-39.8c-9-6.4-11.2-18.9-4.8-28
		c6.4-9,18.9-11.2,28-4.8l56.2,39.9C552.9,437.4,555,450,548.6,459z"/>
</g>
</svg>
